<svg xmlns="http://www.w3.org/2000/svg" xmlns:xlink="http://www.w3.org/1999/xlink" width="89" height="160.002" viewBox="0 0 89 160.002">
  <defs>
    <clipPath id="clip-path">
      <rect id="Rectangle_1293" data-name="Rectangle 1293" width="89" height="160.002" fill="none"/>
    </clipPath>
  </defs>
  <g id="Group_5320" data-name="Group 5320" transform="translate(1188 -8.483)">
    <g id="Group_5029" data-name="Group 5029" transform="translate(-1188 8.483)" clip-path="url(#clip-path)">
      <path id="Path_2361" data-name="Path 2361" d="M78.28,31.7a7.565,7.565,0,0,0-1.1.221,34.7,34.7,0,0,0-67.71,0,7.565,7.565,0,0,0-1.1-.221,7.863,7.863,0,0,0,0,15.726,7.145,7.145,0,0,0,1.1-.221,34.7,34.7,0,0,0,67.71,0,7.145,7.145,0,0,0,1.1.221,7.863,7.863,0,1,0,0-15.726" transform="translate(1.178 11.397)" fill="#fff"/>
      <path id="Path_2362" data-name="Path 2362" d="M44.5,77.147A36.169,36.169,0,0,1,9.385,50.281a9.54,9.54,0,0,1,0-19.078,36.383,36.383,0,0,1,70.23,0,9.54,9.54,0,0,1,0,19.078A36.165,36.165,0,0,1,44.5,77.147M10.643,46.7a1.68,1.68,0,0,1,1.637,1.309,33.022,33.022,0,0,0,64.436,0,1.7,1.7,0,0,1,1.892-1.288,5.672,5.672,0,0,1,.638.144,6.159,6.159,0,1,0,.232-12.314,7.537,7.537,0,0,1-.882.2,1.659,1.659,0,0,1-1.879-1.292,33.024,33.024,0,0,0-64.436,0A1.7,1.7,0,0,1,10.4,34.759a4.854,4.854,0,0,1-.654-.148,6.29,6.29,0,0,0-6.4,6.13,6.193,6.193,0,0,0,6.187,6.187,7.3,7.3,0,0,1,.846-.2,1.7,1.7,0,0,1,.255-.02" transform="translate(0 10.222)" fill="#221815"/>
      <path id="Path_2363" data-name="Path 2363" d="M38.828,104.293c-.372,0-.752-.007-1.127-.017C18.243,103.692,2.413,86.714,2.413,66.432V28.339a3.973,3.973,0,0,1,2.671-3.781,3.907,3.907,0,0,1,4.392,1.235A89.871,89.871,0,0,0,67.932,58.174a1.679,1.679,0,0,1,1.446,1.879A1.7,1.7,0,0,1,67.5,61.5,93.2,93.2,0,0,1,6.872,27.909a.569.569,0,0,0-.668-.188.628.628,0,0,0-.436.617V66.432c0,18.488,14.371,33.959,32.03,34.489a33.056,33.056,0,0,0,34.07-33.033V27.664a.619.619,0,0,0-.419-.611.573.573,0,0,0-.674.164C66.3,32.248,57.048,41.6,45.4,47.682a1.679,1.679,0,1,1-1.554-2.976c11.17-5.838,20.1-14.861,24.423-19.719a3.932,3.932,0,0,1,4.372-1.07,3.986,3.986,0,0,1,2.58,3.748V67.888a36.408,36.408,0,0,1-36.4,36.405" transform="translate(5.683 55.709)" fill="#221815"/>
      <path id="Path_2364" data-name="Path 2364" d="M14.344,18.061a9.723,9.723,0,0,1-5.919-2.017,1.678,1.678,0,1,1,2.033-2.671,6.423,6.423,0,0,0,7.768,0,1.678,1.678,0,0,1,2.033,2.671,9.721,9.721,0,0,1-5.915,2.017" transform="translate(18.289 30.692)" fill="#221815"/>
      <path id="Path_2365" data-name="Path 2365" d="M21.6,18.061a9.721,9.721,0,0,1-5.915-2.017,1.678,1.678,0,1,1,2.033-2.671,6.418,6.418,0,0,0,7.768,0,1.678,1.678,0,1,1,2.033,2.671A9.723,9.723,0,0,1,21.6,18.061" transform="translate(35.382 30.692)" fill="#221815"/>
      <path id="Path_2366" data-name="Path 2366" d="M16.207,18.23a1.663,1.663,0,0,1-.631-.124A8.937,8.937,0,0,1,10.258,7.711c.822-3.748,4.355-7.955,11-7.7a1.679,1.679,0,0,1-.077,3.355l-.074,0c-4.718-.181-7,2.48-7.57,5.067a5.583,5.583,0,0,0,3.3,6.57,1.677,1.677,0,0,1-.631,3.231" transform="translate(23.617 -0.001)" fill="#221815"/>
      <path id="Path_2367" data-name="Path 2367" d="M16.2,12.051a1.653,1.653,0,0,1-.872-.245A5.3,5.3,0,0,1,13.052,7.29a5.215,5.215,0,0,1,2.235-4.533,1.679,1.679,0,0,1,1.819,2.822,2.01,2.01,0,0,0-.7,1.668,2.179,2.179,0,0,0,.661,1.694,1.676,1.676,0,0,1-.872,3.11" transform="translate(30.741 5.863)" fill="#221815"/>
      <path id="Path_2368" data-name="Path 2368" d="M34.047,68.2c-.309,0-.614,0-.916-.013-15.82-.476-28.688-14.27-28.688-30.752a1.678,1.678,0,1,1,3.355,0c0,14.686,11.408,26.977,25.43,27.4A26.236,26.236,0,0,0,60.272,38.607a1.678,1.678,0,1,1,3.355,0A29.588,29.588,0,0,1,34.047,68.2" transform="translate(10.465 84.222)" fill="#f7aa87"/>
    </g>
  </g>
</svg>
