<svg xmlns="http://www.w3.org/2000/svg" xmlns:xlink="http://www.w3.org/1999/xlink" width="135.356" height="150.944" viewBox="0 0 135.356 150.944">
  <defs>
    <clipPath id="clip-path">
      <rect id="Rectangle_1286" data-name="Rectangle 1286" width="135.356" height="150.944" fill="none"/>
    </clipPath>
  </defs>
  <g id="Group_5319" data-name="Group 5319" transform="translate(-7 -7)">
    <g id="Group_5011" data-name="Group 5011" transform="translate(7 7)" clip-path="url(#clip-path)">
      <path id="Path_2210" data-name="Path 2210" d="M12.829,96.29a1.236,1.236,0,0,1-1.236-1.236V1.236a1.236,1.236,0,1,1,2.471,0V95.054a1.236,1.236,0,0,1-1.236,1.236" transform="translate(17.059 0.001)" fill="#05222e"/>
      <path id="Path_2211" data-name="Path 2211" d="M107.362,35.472H20.091a3.351,3.351,0,0,1-3.334-3.361V18.691a3.338,3.338,0,0,1,3.334-3.337H87.355a1.236,1.236,0,0,1,0,2.472H20.091a.865.865,0,0,0-.863.865v13.42a.866.866,0,0,0,.863.89h87.271a.869.869,0,0,0,.865-.89V18.691a.868.868,0,0,0-.865-.865H98.583a1.236,1.236,0,0,1,0-2.472h8.779a3.34,3.34,0,0,1,3.337,3.337v13.42a3.353,3.353,0,0,1-3.337,3.361" transform="translate(24.658 22.594)" fill="#05222e"/>
      <path id="Path_2212" data-name="Path 2212" d="M100.985,48.84H20.143A1.236,1.236,0,0,1,18.907,47.6V23.73a1.236,1.236,0,0,1,1.236-1.236h80.843a1.235,1.235,0,0,1,1.236,1.236V47.6a1.235,1.235,0,0,1-1.236,1.236M21.378,46.369H99.75v-21.4H21.378Z" transform="translate(27.822 33.101)" fill="#05222e"/>
      <path id="Path_2213" data-name="Path 2213" d="M107.364,48.491H20.093a3.342,3.342,0,0,1-3.337-3.337V35.515a3.353,3.353,0,0,1,3.337-3.361h87.271a3.351,3.351,0,0,1,3.334,3.361v9.639a3.339,3.339,0,0,1-3.334,3.337M20.093,34.625a.891.891,0,0,0-.865.89v9.639a.868.868,0,0,0,.865.865h87.271a.865.865,0,0,0,.863-.865V35.515a.889.889,0,0,0-.863-.89Z" transform="translate(24.656 47.315)" fill="#05222e"/>
      <path id="Path_2214" data-name="Path 2214" d="M48.149,67H33.543a1.235,1.235,0,0,1-1.236-1.236V44.61a1.233,1.233,0,0,1,1.236-1.236H48.149a1.235,1.235,0,0,1,1.236,1.236V65.766A1.236,1.236,0,0,1,48.149,67M34.779,64.53H46.914V45.846H34.779Z" transform="translate(47.54 63.826)" fill="#05222e"/>
      <path id="Path_2215" data-name="Path 2215" d="M86.519,54.1H34.2A12.033,12.033,0,0,1,23.54,47.709L19.2,39.583a1.234,1.234,0,0,1,1.087-1.819h80.151a1.236,1.236,0,0,1,1.087,1.819l-4.35,8.131A12.028,12.028,0,0,1,86.519,54.1M22.344,40.236l3.376,6.312A9.572,9.572,0,0,0,34.2,51.629H86.519a9.573,9.573,0,0,0,8.475-5.076l3.379-6.317Z" transform="translate(28.028 55.57)" fill="#05222e"/>
      <path id="Path_2216" data-name="Path 2216" d="M46.021,16.554a1.236,1.236,0,0,1-1.236-1.236V3.722a1.261,1.261,0,0,0-1.268-1.251H6.914A1.262,1.262,0,0,0,5.646,3.722v11.6a1.236,1.236,0,1,1-2.471,0V3.722A3.736,3.736,0,0,1,6.914,0h36.6a3.736,3.736,0,0,1,3.739,3.722v11.6a1.236,1.236,0,0,1-1.236,1.236" transform="translate(4.672 0.001)" fill="#05222e"/>
      <path id="Path_2217" data-name="Path 2217" d="M9.083,23.739A9.018,9.018,0,0,1,0,14.809,9.018,9.018,0,0,1,9.083,5.882a9.02,9.02,0,0,1,9.085,8.927,9.02,9.02,0,0,1-9.085,8.93m0-15.385a6.543,6.543,0,0,0-6.611,6.456,6.543,6.543,0,0,0,6.611,6.458A6.544,6.544,0,0,0,15.7,14.809,6.543,6.543,0,0,0,9.083,8.353" transform="translate(0 8.656)" fill="#05222e"/>
      <path id="Path_2218" data-name="Path 2218" d="M95.415,63.871H23.148a3.352,3.352,0,0,1-3.361-3.337V55.3a3.365,3.365,0,0,1,3.361-3.361H35.642a1.236,1.236,0,1,1,0,2.471H23.148a.892.892,0,0,0-.89.89v5.24a.87.87,0,0,0,.89.865H95.415a.868.868,0,0,0,.867-.865V55.3a.891.891,0,0,0-.867-.89H44.423a1.236,1.236,0,1,1,0-2.471H95.415A3.354,3.354,0,0,1,98.754,55.3v5.24a3.34,3.34,0,0,1-3.339,3.337" transform="translate(29.116 76.422)" fill="#05222e"/>
      <path id="Path_2219" data-name="Path 2219" d="M31.6,68.888a9.008,9.008,0,0,1-9.07-8.922,8.67,8.67,0,0,1,.719-3.458,1.242,1.242,0,0,1,1.134-.744H38.839a1.24,1.24,0,0,1,1.134.744,8.67,8.67,0,0,1,.719,3.458,9.018,9.018,0,0,1-9.1,8.922M25.246,58.235A6.2,6.2,0,0,0,25,59.966a6.613,6.613,0,0,0,13.223,0,6.112,6.112,0,0,0-.247-1.73Z" transform="translate(33.148 82.058)" fill="#05222e"/>
      <path id="Path_2220" data-name="Path 2220" d="M50.744,68.888a9.022,9.022,0,0,1-9.1-8.922,8.7,8.7,0,0,1,.719-3.455,1.235,1.235,0,0,1,1.134-.746H57.96a1.24,1.24,0,0,1,1.134.744,8.67,8.67,0,0,1,.719,3.458,9.006,9.006,0,0,1-9.07,8.922M44.367,58.235a6.231,6.231,0,0,0-.25,1.73,6.615,6.615,0,0,0,13.225,0,6.112,6.112,0,0,0-.247-1.73Z" transform="translate(61.282 82.058)" fill="#05222e"/>
      <path id="Path_2221" data-name="Path 2221" d="M25.919,23.739a9.018,9.018,0,0,1-9.083-8.93,9.084,9.084,0,0,1,18.165,0,9.018,9.018,0,0,1-9.083,8.93m0-15.385a6.543,6.543,0,0,0-6.611,6.456,6.613,6.613,0,0,0,13.223,0,6.543,6.543,0,0,0-6.611-6.456" transform="translate(24.774 8.656)" fill="#05222e"/>
      <path id="Path_2222" data-name="Path 2222" d="M50.909,29.575c1.881,3.809,1.008,8.082-1.952,9.545s-6.883-.44-8.766-4.249-1.008-8.082,1.952-9.545,6.886.44,8.766,4.249" transform="translate(57.681 36.544)" fill="#f6a87a"/>
      <path id="Path_2223" data-name="Path 2223" d="M47.547,41.59a7.306,7.306,0,0,1-3.181-.769,10.565,10.565,0,0,1-5.489-11.112A6.32,6.32,0,0,1,48.2,25.1,10.562,10.562,0,0,1,53.7,36.212a6.571,6.571,0,0,1-3.455,4.753,6.035,6.035,0,0,1-2.694.625M45.029,26.808a3.575,3.575,0,0,0-1.6.366,4.163,4.163,0,0,0-2.13,3.033,8.1,8.1,0,0,0,4.15,8.391,3.861,3.861,0,0,0,5.828-2.882,7.63,7.63,0,0,0-.737-4.854v0a7.649,7.649,0,0,0-3.408-3.534,4.857,4.857,0,0,0-2.1-.517" transform="translate(56.945 35.806)" fill="#05222e"/>
      <path id="Path_2224" data-name="Path 2224" d="M28.178,29.575c-1.881,3.809-1.008,8.082,1.952,9.545s6.883-.44,8.766-4.249,1.008-8.082-1.952-9.545-6.886.44-8.766,4.249" transform="translate(40.004 36.544)" fill="#f6a87a"/>
      <path id="Path_2225" data-name="Path 2225" d="M32.987,41.573a5.986,5.986,0,0,1-2.672-.615,6.562,6.562,0,0,1-3.453-4.75,10.123,10.123,0,0,1,.944-6.448c2.18-4.414,6.858-6.569,10.42-4.807s4.693,6.784,2.514,11.2c-1.666,3.369-4.785,5.422-7.753,5.422M30.022,30.854h0a7.639,7.639,0,0,0-.739,4.856,4.167,4.167,0,0,0,2.128,3.033c2.343,1.159,5.536-.5,7.113-3.687s.952-6.73-1.391-7.889-5.531.494-7.11,3.687" transform="translate(39.267 35.813)" fill="#05222e"/>
    </g>
  </g>
</svg>
