<svg xmlns="http://www.w3.org/2000/svg" xmlns:xlink="http://www.w3.org/1999/xlink" width="68" height="69" viewBox="0 0 68 69">
  <defs>
    <clipPath id="clip-path">
      <rect id="Rectangle_1209" data-name="Rectangle 1209" width="26.657" height="22.427" fill="none" stroke="#414141" stroke-width="2"/>
    </clipPath>
  </defs>
  <g id="Group_4881" data-name="Group 4881" transform="translate(-285 -105)">
    <rect id="Rectangle_39" data-name="Rectangle 39" width="68" height="69" transform="translate(285 105)" fill="#fff"/>
    <text id="Mute" transform="translate(319 160)" fill="#05222e" font-size="14" font-family="OpenSans-Semibold, Open Sans" font-weight="600"><tspan x="-17" y="0">Mute</tspan></text>
    <g id="Group_4871" data-name="Group 4871" transform="translate(306 119)" clip-path="url(#clip-path)">
      <path id="Path_1761" data-name="Path 1761" d="M9.854,1.218l-5.3,5.92a1.442,1.442,0,0,1-1.074.48H1.219A.719.719,0,0,0,.5,8.337v3.972a.719.719,0,0,0,.719.719H3.478a1.442,1.442,0,0,1,1.074.48l5.3,5.92a.378.378,0,0,0,.66-.252V1.47A.378.378,0,0,0,9.854,1.218Z" transform="translate(1.378 0.994)" fill="#05222e"/>
      <path id="Path_1762" data-name="Path 1762" d="M34.028,16.753a4.281,4.281,0,0,1,.022,7.261" transform="translate(-19.38 -9.17)" fill="none" stroke="#05222e" stroke-linecap="round" stroke-linejoin="round" stroke-width="2"/>
      <path id="Path_1763" data-name="Path 1763" d="M39.665,8.027a7.893,7.893,0,0,1,.04,13.387" transform="translate(-23.039 -3.507)" fill="none" stroke="#05222e" stroke-linecap="round" stroke-linejoin="round" stroke-width="2"/>
      <path id="Path_1764" data-name="Path 1764" d="M48.068.5a11.008,11.008,0,0,1,.056,18.672" transform="translate(-28.492 1.378)" fill="none" stroke="#05222e" stroke-linecap="round" stroke-linejoin="round" stroke-width="2"/>
    </g>
  </g>
</svg>
