<svg xmlns="http://www.w3.org/2000/svg" xmlns:xlink="http://www.w3.org/1999/xlink" width="68" height="69" viewBox="0 0 68 69">
  <defs>
    <clipPath id="clip-path">
      <rect id="Rectangle_1209" data-name="Rectangle 1209" width="26.657" height="22.427" fill="none" stroke="#414141" stroke-width="2"/>
    </clipPath>
  </defs>
  <g id="Group_4888" data-name="Group 4888" transform="translate(-285 -198)">
    <rect id="Rectangle_39" data-name="Rectangle 39" width="68" height="69" transform="translate(285 198)" fill="#05222e"/>
    <text id="Unmute" transform="translate(319 253)" fill="#fff" font-size="14" font-family="OpenSans-Semibold, Open Sans" font-weight="600"><tspan x="-27" y="0">Unmute</tspan></text>
    <g id="Group_4871" data-name="Group 4871" transform="translate(306 212)" clip-path="url(#clip-path)">
      <path id="Path_1761" data-name="Path 1761" d="M9.854,1.218l-5.3,5.92a1.442,1.442,0,0,1-1.074.48H1.219A.719.719,0,0,0,.5,8.337v3.972a.719.719,0,0,0,.719.719H3.478a1.442,1.442,0,0,1,1.074.48l5.3,5.92a.378.378,0,0,0,.66-.252V1.47A.378.378,0,0,0,9.854,1.218Z" transform="translate(1.378 0.994)" fill="#fff"/>
      <path id="Path_1768" data-name="Path 1768" d="M13.682,15.013l8.5-8.5" transform="translate(1.643 0.452)" fill="none" stroke="#fff" stroke-linecap="round" stroke-width="2"/>
      <path id="Path_1769" data-name="Path 1769" d="M0,8.5,8.5,0" transform="translate(15.325 15.465) rotate(-90)" fill="none" stroke="#fff" stroke-linecap="round" stroke-width="2"/>
    </g>
  </g>
</svg>
