<svg xmlns="http://www.w3.org/2000/svg" xmlns:xlink="http://www.w3.org/1999/xlink" width="42.151" height="50.688" viewBox="0 0 42.151 50.688">
  <defs>
    <clipPath id="clip-path">
      <rect id="Rectangle_1452" data-name="Rectangle 1452" width="42.151" height="50.688" fill="none"/>
    </clipPath>
  </defs>
  <g id="Group_5440" data-name="Group 5440" transform="translate(0 0)">
    <g id="Group_5439" data-name="Group 5439" transform="translate(0 0)" clip-path="url(#clip-path)">
      <path id="Path_2592" data-name="Path 2592" d="M5.118,8.882h5.206v1.824l19.362-.05V8.882H34.9a1.243,1.243,0,0,1,1.243,1.243V41.97A1.243,1.243,0,0,1,34.9,43.213H5.118A1.244,1.244,0,0,1,3.875,41.97V10.125A1.244,1.244,0,0,1,5.118,8.882" transform="translate(1.064 2.44)" fill="#f6a87a" fill-rule="evenodd"/>
      <path id="Path_2593" data-name="Path 2593" d="M28.174,49.309H2.789A2.792,2.792,0,0,1,0,46.52V7.8A2.793,2.793,0,0,1,2.789,5.006H11.4a.637.637,0,0,1,0,1.275H2.789A1.516,1.516,0,0,0,1.275,7.8V46.52a1.516,1.516,0,0,0,1.514,1.514H28.174a.637.637,0,1,1,0,1.275" transform="translate(0 1.375)" fill="#05222e"/>
      <path id="Path_2594" data-name="Path 2594" d="M32.872,49.312H28.619a.637.637,0,0,1,0-1.275h4.252a1.516,1.516,0,0,0,1.514-1.514V7.8a1.516,1.516,0,0,0-1.514-1.514H24.266a.637.637,0,0,1,0-1.275h8.605A2.792,2.792,0,0,1,35.661,7.8V46.523a2.791,2.791,0,0,1-2.789,2.789" transform="translate(6.49 1.376)" fill="#05222e"/>
      <path id="Path_2595" data-name="Path 2595" d="M27.36,14.111H10.152A1.715,1.715,0,0,1,8.439,12.4V5.944a1.715,1.715,0,0,1,1.713-1.713h3.716a4.941,4.941,0,0,1,9.779,0H27.36a1.715,1.715,0,0,1,1.713,1.713V12.4a1.715,1.715,0,0,1-1.713,1.713M10.152,5.505a.439.439,0,0,0-.438.438V12.4a.439.439,0,0,0,.438.438H27.36A.439.439,0,0,0,27.8,12.4V5.943A.439.439,0,0,0,27.36,5.5h-4.3a.638.638,0,0,1-.637-.626,3.666,3.666,0,0,0-7.331,0,.639.639,0,0,1-.637.626Z" transform="translate(2.318 0)" fill="#05222e"/>
      <path id="Path_2596" data-name="Path 2596" d="M20.435,29.366h0L7.608,29.342a.637.637,0,1,1,0-1.275h0l12.827.024a.637.637,0,0,1,0,1.275" transform="translate(1.915 7.71)" fill="#05222e"/>
      <path id="Path_2597" data-name="Path 2597" d="M20.435,33.237h0L7.608,33.213a.637.637,0,1,1,0-1.275h0l12.827.024a.637.637,0,0,1,0,1.275" transform="translate(1.915 8.773)" fill="#05222e"/>
      <path id="Path_2598" data-name="Path 2598" d="M19.441,30.167a8.61,8.61,0,0,1-1.778-.187,8.412,8.412,0,0,1-6.572-6.858.638.638,0,1,1,1.258-.213,7.172,7.172,0,1,0,.056-2.691.636.636,0,0,1-.623.5H7.609a.637.637,0,0,1,0-1.275h3.672a8.449,8.449,0,1,1,8.159,10.719" transform="translate(1.915 3.642)" fill="#05222e"/>
      <path id="Path_2599" data-name="Path 2599" d="M26.276,31.523a1.78,1.78,0,0,1-1.323-.585l-3.908-3.909a.638.638,0,1,1,.9-.9l3.93,3.932a.518.518,0,1,0,.751-.707l-4.992-4.993a.637.637,0,0,1,.9-.9l4.97,4.971a1.793,1.793,0,0,1,.107,2.51l-.1.1a1.84,1.84,0,0,1-1.235.479" transform="translate(5.73 6.393)" fill="#05222e"/>
      <path id="Path_2600" data-name="Path 2600" d="M23.7,21.1A5.591,5.591,0,1,1,18.1,15.5,5.591,5.591,0,0,1,23.7,21.1Z" transform="translate(3.437 4.259)" fill="#fff"/>
      <path id="Path_2601" data-name="Path 2601" d="M16.5,24.146a.639.639,0,0,1-.451-.186l-1.773-1.774a.637.637,0,0,1,.9-.9l1.263,1.263,3.676-4.725a.637.637,0,1,1,1.006.783L17,23.9a.645.645,0,0,1-.465.245H16.5" transform="translate(3.87 4.828)" fill="#05222e"/>
    </g>
  </g>
</svg>
