<svg xmlns="http://www.w3.org/2000/svg" width="48.592" height="56.294" viewBox="0 0 48.592 56.294">
  <g id="Group_4905" data-name="Group 4905" transform="translate(0.5 0.5)">
    <path id="Rectangle_1203" data-name="Rectangle 1203" d="M.76,0H3.6A1.669,1.669,0,0,1,5.268,1.669V5.544A4.508,4.508,0,0,1,.76,10.053h0A.76.76,0,0,1,0,9.293V.76A.76.76,0,0,1,.76,0Z" transform="translate(42.323 12.514)" fill="#f6a87a" stroke="#05222e" stroke-linecap="round" stroke-linejoin="round" stroke-width="1"/>
    <path id="Rectangle_1204" data-name="Rectangle 1204" d="M.76,0H3.6A1.669,1.669,0,0,1,5.268,1.669V5.544A4.508,4.508,0,0,1,.76,10.053h0A.76.76,0,0,1,0,9.293V.76A.76.76,0,0,1,.76,0Z" transform="translate(42.323 24.996)" fill="#f6a87a" stroke="#05222e" stroke-linecap="round" stroke-linejoin="round" stroke-width="1"/>
    <path id="Rectangle_1205" data-name="Rectangle 1205" d="M.76,0H3.6A1.669,1.669,0,0,1,5.268,1.669V5.544A4.508,4.508,0,0,1,.76,10.053h0A.76.76,0,0,1,0,9.293V.76A.76.76,0,0,1,.76,0Z" transform="translate(42.323 37.477)" fill="#f6a87a" stroke="#05222e" stroke-linecap="round" stroke-linejoin="round" stroke-width="1"/>
    <path id="Path_1745" data-name="Path 1745" d="M-3480.022-484.152h-42.685a.707.707,0,0,0-.708.707v53.879a.707.707,0,0,0,.708.707h41.977a.707.707,0,0,0,.708-.707V-474a.707.707,0,0,1,.707-.707h0a3.389,3.389,0,0,0,3.492-3.274v-4.066a2.063,2.063,0,0,0-2.027-2.063Z" transform="translate(3523.414 484.152)" fill="#fff" stroke="#05222e" stroke-linecap="round" stroke-linejoin="round" stroke-width="1"/>
    <g id="Group_4862" data-name="Group 4862" transform="translate(12.831 4.259)">
      <ellipse id="Ellipse_77" data-name="Ellipse 77" cx="8.818" cy="8.805" rx="8.818" ry="8.805" transform="translate(0)" fill="#f6a87a" stroke="#05222e" stroke-linecap="round" stroke-linejoin="round" stroke-width="1"/>
      <g id="Group_4861" data-name="Group 4861" transform="translate(2.583 3.661)">
        <g id="Group_4860" data-name="Group 4860">
          <path id="Path_1746" data-name="Path 1746" d="M-3424.886-428.581a1.615,1.615,0,0,0-.987-.726c-.833-.211-2.164-.372-2.911-.586a.924.924,0,0,1-.67-.887v-.7a.31.31,0,0,1,.119-.24,3.57,3.57,0,0,0,1-1.476,7.777,7.777,0,0,0,.539-3.352,3.176,3.176,0,0,0-3.359-3.322,3.217,3.217,0,0,0-3.359,3.322,28.706,28.706,0,0,0,.513,3.11,3.413,3.413,0,0,0,.915,1.717.316.316,0,0,1,.124.245v.7a.92.92,0,0,1-.665.886c-.747.215-1.889.438-2.724.649a1.621,1.621,0,0,0-.9.6" transform="translate(3437.248 439.874)" fill="none" stroke="#05222e" stroke-linecap="round" stroke-linejoin="round" stroke-width="1"/>
        </g>
      </g>
      <path id="Path_1747" data-name="Path 1747" d="M-3415.727-396.05a3.143,3.143,0,0,0,4.279.1" transform="translate(3422.159 407.55)" fill="none" stroke="#05222e" stroke-linecap="round" stroke-linejoin="round" stroke-width="1"/>
    </g>
    <line id="Line_56" data-name="Line 56" x2="5.077" transform="translate(34.173 26.356)" fill="#333" stroke="#05222e" stroke-linecap="round" stroke-width="1"/>
    <line id="Line_57" data-name="Line 57" x2="26.157" transform="translate(4.263 26.356)" fill="#333" stroke="#05222e" stroke-linecap="round" stroke-width="1"/>
    <line id="Line_58" data-name="Line 58" x2="16.169" transform="translate(23.081 34.459)" fill="#333" stroke="#05222e" stroke-linecap="round" stroke-width="1"/>
    <line id="Line_59" data-name="Line 59" x2="15.52" transform="translate(4.263 34.458)" fill="#333" stroke="#05222e" stroke-linecap="round" stroke-width="1"/>
    <line id="Line_60" data-name="Line 60" x2="15.034" transform="translate(24.216 41.667)" fill="#333" stroke="#05222e" stroke-linecap="round" stroke-width="1"/>
    <line id="Line_61" data-name="Line 61" x2="16.169" transform="translate(4.263 41.667)" fill="#333" stroke="#05222e" stroke-linecap="round" stroke-width="1"/>
    <path id="Path_1749" data-name="Path 1749" d="M3.163,0H13.879" transform="translate(25.371 48.518)" fill="#333" stroke="#05222e" stroke-linecap="round" stroke-width="1"/>
    <line id="Line_63" data-name="Line 63" x2="20.142" transform="translate(4.263 48.518)" fill="#333" stroke="#05222e" stroke-linecap="round" stroke-width="1"/>
  </g>
</svg>
