<svg xmlns="http://www.w3.org/2000/svg" width="41.695" height="46.363" viewBox="0 0 41.695 46.363">
  <g id="Group_4855" data-name="Group 4855" transform="translate(1695.134 879.971)">
    <g id="Group_4851" data-name="Group 4851" transform="translate(-1686.678 -878.108)">
      <circle id="Ellipse_74" data-name="Ellipse 74" cx="6.153" cy="6.153" r="6.153" transform="matrix(0.932, -0.362, 0.362, 0.932, 6.122, 4.454)" fill="none" stroke="#05222e" stroke-linecap="round" stroke-width="1"/>
      <path id="Path_1715" data-name="Path 1715" d="M-1631.323-799.37l-6.235-6.234a3.44,3.44,0,0,0-2.432-1.008h-9.456a3.439,3.439,0,0,0-2.432,1.008l-6.234,6.234a2.356,2.356,0,0,0,0,3.332h0a2.356,2.356,0,0,0,3.332,0l3.91-3.91v4.534h12.306v-4.534l3.91,3.91a2.356,2.356,0,0,0,3.332,0h0A2.356,2.356,0,0,0-1631.323-799.37Z" transform="translate(1658.802 821.823)" fill="none" stroke="#05222e" stroke-linecap="round" stroke-width="1"/>
      <path id="Path_1716" data-name="Path 1716" d="M-1639.7-741.1l3.361-3.361-4.547-4.547-3.635,3.634a4.325,4.325,0,0,0,0,6.117l4.768,4.768a2.357,2.357,0,0,0,3.332,0h0a2.356,2.356,0,0,0,0-3.332Z" transform="translate(1648.818 777.627)" fill="none" stroke="#05222e" stroke-linecap="round" stroke-width="1"/>
      <path id="Path_1717" data-name="Path 1717" d="M-1588.836-749.01l-4.547,4.547,3.361,3.361-3.279,3.279a2.357,2.357,0,0,0,0,3.332h0a2.357,2.357,0,0,0,3.332,0l4.768-4.768a4.325,4.325,0,0,0,0-6.117Z" transform="translate(1609.075 777.627)" fill="none" stroke="#05222e" stroke-linecap="round" stroke-width="1"/>
    </g>
    <path id="Path_1718" data-name="Path 1718" d="M-1624.726-758.5v2.208l4.547,4.547h3.214l4.547-4.547,0-2.208Z" transform="translate(-54.02 -93.202)" fill="#f6a87a" stroke="#191919" stroke-width="1"/>
    <g id="Group_4852" data-name="Group 4852" transform="translate(-1694.236 -879.971)">
      <g id="path4986" transform="translate(1.17 1.561)">
        <path id="Path_1719" data-name="Path 1719" d="M-1683.013-865.41a2.88,2.88,0,0,1-2.813-1.4,3.48,3.48,0,0,1-.019-3.278,6.233,6.233,0,0,1,4.827-3.057,9.961,9.961,0,0,1,1.535-.121c2.255,0,4.218.822,5.121,2.146a3.134,3.134,0,0,1,.287,3.029c-.675,1.727-2.745,1.938-4.572,2.123-.39.04-.771.078-1.129.131-.255.037-.53.086-.816.136A14.221,14.221,0,0,1-1683.013-865.41Zm3.53-7.148a9.254,9.254,0,0,0-1.426.113,5.626,5.626,0,0,0-4.3,2.674,2.8,2.8,0,0,0,.007,2.63,2.216,2.216,0,0,0,2.193,1.025,13.72,13.72,0,0,0,2.3-.276c.293-.052.574-.1.836-.14.368-.054.76-.094,1.161-.135,1.705-.173,3.468-.353,3.987-1.679a2.459,2.459,0,0,0-.213-2.374A5.482,5.482,0,0,0-1679.483-872.557Z" transform="translate(1686.245 873.262)" fill="#05222e"/>
      </g>
      <g id="path4992" transform="translate(0 0)">
        <path id="Path_1720" data-name="Path 1720" d="M-1688.5-868.8a.35.35,0,0,1-.109-.017.352.352,0,0,1-.226-.444l.607-1.868a.351.351,0,0,1,.444-.226.352.352,0,0,1,.226.444l-.607,1.868A.352.352,0,0,1-1688.5-868.8Zm3.569-.666a.353.353,0,0,1-.352-.343l-.034-1.3a.352.352,0,0,1,.343-.361.35.35,0,0,1,.362.343l.034,1.3a.353.353,0,0,1-.343.362Zm3.223-.026a.352.352,0,0,1-.351-.323l-.141-1.693a.352.352,0,0,1,.322-.38.356.356,0,0,1,.38.322l.141,1.693a.352.352,0,0,1-.322.38Zm3.171-1.066a.351.351,0,0,1-.289-.15l-.864-1.237a.352.352,0,0,1,.087-.491.352.352,0,0,1,.491.087l.865,1.237a.352.352,0,0,1-.087.49A.348.348,0,0,1-1678.535-870.556Zm-12.173-.4a.352.352,0,0,1-.3-.169.351.351,0,0,1,.118-.484l1.335-.812a.352.352,0,0,1,.484.118.352.352,0,0,1-.118.484l-1.334.812A.349.349,0,0,1-1690.708-870.956Zm14.2-2.051a.347.347,0,0,1-.144-.031l-1.561-.7a.352.352,0,0,1-.178-.465.351.351,0,0,1,.465-.178l1.561.7a.352.352,0,0,1,.178.465A.352.352,0,0,1-1676.511-873.007Zm-14.411-.826a.352.352,0,0,1-.352-.348.352.352,0,0,1,.348-.356l1.234-.014a.355.355,0,0,1,.357.348.353.353,0,0,1-.348.357l-1.233.014Zm12.464-1.8a.353.353,0,0,1-.316-.2.352.352,0,0,1,.158-.472l1.627-.811a.352.352,0,0,1,.473.158.352.352,0,0,1-.158.473l-1.627.811A.35.35,0,0,1-1678.457-875.632Zm-10.305-.007a.351.351,0,0,1-.2-.064l-1.413-.991a.353.353,0,0,1-.086-.491.354.354,0,0,1,.491-.086l1.413.99a.353.353,0,0,1,.086.491A.352.352,0,0,1-1688.763-875.639Zm1.658-1.241a.351.351,0,0,1-.263-.118l-1.34-1.508a.352.352,0,0,1,.03-.5.352.352,0,0,1,.5.03l1.34,1.507a.352.352,0,0,1-.029.5A.351.351,0,0,1-1687.1-876.88Zm7.036-.123a.349.349,0,0,1-.179-.049.352.352,0,0,1-.124-.483l.787-1.331a.352.352,0,0,1,.483-.124.353.353,0,0,1,.124.483l-.786,1.331A.352.352,0,0,1-1680.069-877Zm-4.754-.585a.353.353,0,0,1-.334-.241l-.559-1.679a.353.353,0,0,1,.223-.446.353.353,0,0,1,.446.223l.559,1.679a.353.353,0,0,1-.223.446A.358.358,0,0,1-1684.822-877.588Zm2.371-.072a.35.35,0,0,1-.058,0,.353.353,0,0,1-.29-.406l.267-1.606a.354.354,0,0,1,.406-.29.353.353,0,0,1,.29.406l-.267,1.606A.353.353,0,0,1-1682.451-877.66Z" transform="translate(1691.274 879.971)" fill="#05222e"/>
      </g>
      <g id="path4998" transform="translate(9.128 4.336)">
        <path id="Path_1721" data-name="Path 1721" d="M-1650.617-858.822a1.408,1.408,0,0,1-1.379-.729,1.07,1.07,0,0,1,.176-1,1.7,1.7,0,0,1,1.482-.783,1.422,1.422,0,0,1,.992.856,1.14,1.14,0,0,1,0,1.094A1.471,1.471,0,0,1-1650.617-858.822Zm.172-1.813a1.092,1.092,0,0,0-.793.484.43.43,0,0,0-.1.344c.053.138.338.28.721.28a.857.857,0,0,0,.678-.236.5.5,0,0,0-.048-.421.777.777,0,0,0-.452-.452Z" transform="translate(1652.054 861.343)" fill="#05222e"/>
      </g>
      <g id="path5005" transform="translate(7.594 3.461)">
        <path id="Path_1722" data-name="Path 1722" d="M-1658.641-864.561c-.039-.248.291-.6.533-.532.31.084.491.732.24.932C-1658.1-863.981-1658.6-864.275-1658.641-864.561Z" transform="translate(1658.644 865.101)" fill="#05222e"/>
      </g>
      <g id="path5007" transform="translate(6.957 5.405)">
        <path id="Path_1723" data-name="Path 1723" d="M-1661.38-856.261c-.025-.238.3-.543.532-.479.322.089.488.6.227.812A.515.515,0,0,1-1661.38-856.261Z" transform="translate(1661.382 856.749)" fill="#05222e"/>
      </g>
      <g id="path5009" transform="translate(5.34 4.054)">
        <path id="Path_1724" data-name="Path 1724" d="M-1667.885-862.551a.6.6,0,0,0-.4.773.6.6,0,0,0,.879-.053A.594.594,0,0,0-1667.885-862.551Z" transform="translate(1668.331 862.552)" fill="#05222e"/>
      </g>
      <g id="path5011" transform="translate(3.569 5.146)">
        <path id="Path_1725" data-name="Path 1725" d="M-1675.879-857.033c-.187-.243.1-.808.4-.826.262-.015.526.424.423.665C-1675.164-856.937-1675.709-856.811-1675.879-857.033Z" transform="translate(1675.939 857.86)" fill="#05222e"/>
      </g>
      <g id="path5013" transform="translate(4.976 6.393)">
        <path id="Path_1726" data-name="Path 1726" d="M-1669.843-851.667c-.181-.264.156-.807.474-.836.293-.027.669.4.565.677A.709.709,0,0,1-1669.843-851.667Z" transform="translate(1669.894 852.504)" fill="#05222e"/>
      </g>
    </g>
    <g id="Group_4853" data-name="Group 4853" transform="translate(-1695.134 -867.367)">
      <g id="path4990" transform="translate(1.546 1.336)">
        <path id="Path_1727" data-name="Path 1727" d="M-1684.371-811.89h0a4.359,4.359,0,0,1-2.73-.849,4.349,4.349,0,0,1-.778-5.383,5.724,5.724,0,0,1,4.451-1.956,4.1,4.1,0,0,1,2.773.926,3.391,3.391,0,0,1,.979,2.452,5.022,5.022,0,0,1-1.226,3.517A4.9,4.9,0,0,1-1684.371-811.89Zm.943-7.483a5.067,5.067,0,0,0-3.886,1.672,3.678,3.678,0,0,0,.654,4.412,3.659,3.659,0,0,0,2.289.694,4.249,4.249,0,0,0,2.964-1.08,4.35,4.35,0,0,0,1.026-3,2.7,2.7,0,0,0-.747-1.952A3.405,3.405,0,0,0-1683.428-819.372Z" transform="translate(1688.491 820.077)" fill="#05222e"/>
      </g>
      <g id="path4994" transform="translate(0 0)">
        <path id="Path_1728" data-name="Path 1728" d="M-1688.869-815.175a.353.353,0,0,1-.351-.33l-.071-1.143a.352.352,0,0,1,.329-.374.345.345,0,0,1,.374.329l.071,1.144a.352.352,0,0,1-.329.373Zm-3.01-.107a.352.352,0,0,1-.188-.055.352.352,0,0,1-.108-.486l.813-1.278a.353.353,0,0,1,.486-.108.352.352,0,0,1,.109.487l-.813,1.278A.352.352,0,0,1-1691.879-815.282Zm6.047-.773a.35.35,0,0,1-.25-.1l-.971-.975a.352.352,0,0,1,0-.5.352.352,0,0,1,.5,0l.971.976a.353.353,0,0,1,0,.5A.352.352,0,0,1-1685.832-816.054Zm-8.47-1.678a.354.354,0,0,1-.329-.226.353.353,0,0,1,.2-.456l1.434-.553a.353.353,0,0,1,.456.2.353.353,0,0,1-.2.456l-1.434.553A.35.35,0,0,1-1694.3-817.732Zm10.255,0a.353.353,0,0,1-.188-.055l-1.458-.925a.352.352,0,0,1-.109-.486.353.353,0,0,1,.486-.109l1.458.925a.352.352,0,0,1,.109.486A.353.353,0,0,1-1684.047-817.732Zm-9.182-2.64h-.006l-1.552-.024a.353.353,0,0,1-.347-.358.353.353,0,0,1,.353-.347h.005l1.552.024a.353.353,0,0,1,.347.358A.353.353,0,0,1-1693.23-820.371Zm9.449-.1h-.014l-1.343-.052a.352.352,0,0,1-.338-.366.359.359,0,0,1,.366-.338l1.343.052a.352.352,0,0,1,.338.366A.352.352,0,0,1-1683.78-820.476Zm-1.729-1.841a.351.351,0,0,1-.247-.1.352.352,0,0,1,0-.5l1.382-1.408a.353.353,0,0,1,.5,0,.353.353,0,0,1,0,.5l-1.382,1.408A.352.352,0,0,1-1685.51-822.317Zm-6.694-.17a.352.352,0,0,1-.15-.034l-1.487-.706a.352.352,0,0,1-.167-.469.352.352,0,0,1,.469-.167l1.487.706a.352.352,0,0,1,.167.469A.353.353,0,0,1-1692.2-822.487Zm1.914-1.021a.352.352,0,0,1-.349-.308l-.178-1.389a.353.353,0,0,1,.305-.394.35.35,0,0,1,.394.305l.177,1.389a.353.353,0,0,1-.3.394Zm2.808-.159a.362.362,0,0,1-.089-.011.353.353,0,0,1-.253-.429l.372-1.443a.353.353,0,0,1,.429-.253.353.353,0,0,1,.253.429l-.372,1.443A.353.353,0,0,1-1687.481-823.668Z" transform="translate(1695.134 825.815)" fill="#05222e"/>
      </g>
      <g id="path5003" transform="translate(5.991 3.31)">
        <path id="Path_1729" data-name="Path 1729" d="M-1667.986-809.2a1.572,1.572,0,0,1-1.088-.529,1.071,1.071,0,0,1-.315-.809,1.414,1.414,0,0,1,1.407-1.058.958.958,0,0,1,.559.164,1.229,1.229,0,0,1,.414,1.132,1.2,1.2,0,0,1-.6,1.021A.885.885,0,0,1-1667.986-809.2Zm0-1.691c-.315,0-.689.251-.706.42a.416.416,0,0,0,.135.267c.184.2.524.343.645.285a.578.578,0,0,0,.2-.445.61.61,0,0,0-.119-.492A.28.28,0,0,0-1667.983-810.888Z" transform="translate(1669.394 811.593)" fill="#05222e"/>
      </g>
      <g id="path5015" transform="translate(3.653 4.321)">
        <path id="Path_1730" data-name="Path 1730" d="M-1679.409-806.529c-.119-.252.148-.729.426-.719a.645.645,0,0,1,.427.852C-1678.726-806.164-1679.286-806.269-1679.409-806.529Z" transform="translate(1679.438 807.249)" fill="#05222e"/>
      </g>
      <g id="path5017" transform="translate(4.266 6.396)">
        <path id="Path_1731" data-name="Path 1731" d="M-1676.8-797.718a.674.674,0,0,1,.8-.586.642.642,0,0,1,.053.932A.634.634,0,0,1-1676.8-797.718Z" transform="translate(1676.805 798.333)" fill="#05222e"/>
      </g>
      <g id="path5019" transform="translate(6.477 6.668)">
        <path id="Path_1732" data-name="Path 1732" d="M-1667.171-796.45a.477.477,0,0,1,.026-.692.507.507,0,0,1,.613.426A.477.477,0,0,1-1667.171-796.45Z" transform="translate(1667.307 797.167)" fill="#05222e"/>
      </g>
    </g>
    <g id="Group_4854" data-name="Group 4854" transform="translate(-1662.909 -874.483)">
      <g id="path4988" transform="translate(1.365 1.708)">
        <path id="Path_1733" data-name="Path 1733" d="M-1547.389-840.26a2.946,2.946,0,0,1-2.094-1.13,4.793,4.793,0,0,1-1.31-3.4c.235-2.111,2.421-4.263,4.332-4.263a2.406,2.406,0,0,1,1.333.39c1.16.753,1.661,2.4,1.307,4.29-.329,1.763-1.446,3.706-3.2,4.073A1.817,1.817,0,0,1-1547.389-840.26Zm.928-8.087c-1.569,0-3.435,1.869-3.632,3.636a4.186,4.186,0,0,0,1.135,2.851,2.034,2.034,0,0,0,1.8.871c1.425-.3,2.371-2.029,2.649-3.512.235-1.26.1-2.859-1-3.57A1.715,1.715,0,0,0-1546.461-848.346Z" transform="translate(1550.809 849.051)" fill="#05222e"/>
      </g>
      <g id="path4996" transform="translate(0 0)">
        <path id="Path_1734" data-name="Path 1734" d="M-1553.391-844.311a.357.357,0,0,1-.136-.027.353.353,0,0,1-.189-.461l.737-1.763a.353.353,0,0,1,.461-.19.353.353,0,0,1,.189.461l-.737,1.763A.353.353,0,0,1-1553.391-844.311Zm3.143-.107a.352.352,0,0,1-.326-.219l-.706-1.73a.352.352,0,0,1,.193-.459.352.352,0,0,1,.459.193l.705,1.73a.352.352,0,0,1-.193.459A.351.351,0,0,1-1550.248-844.418Zm-5.287-1.944a.352.352,0,0,1-.32-.206.352.352,0,0,1,.174-.467l1.638-.751a.352.352,0,0,1,.467.174.352.352,0,0,1-.174.467l-1.638.751A.348.348,0,0,1-1555.535-846.363Zm7.5-.426a.351.351,0,0,1-.2-.063l-1.357-.938a.353.353,0,0,1-.089-.49.353.353,0,0,1,.49-.09l1.357.938a.353.353,0,0,1,.09.491A.353.353,0,0,1-1548.038-846.789Zm-8.284-2.53a.352.352,0,0,1-.352-.337.352.352,0,0,1,.336-.368l1.394-.062a.357.357,0,0,1,.367.337.352.352,0,0,1-.336.368l-1.394.062Zm8.764-.639a.344.344,0,0,1-.134-.027l-1.022-.421a.351.351,0,0,1-.192-.46.352.352,0,0,1,.46-.192l1.022.421a.352.352,0,0,1,.192.46A.351.351,0,0,1-1547.558-849.958Zm-6.857-1.608a.352.352,0,0,1-.2-.063l-1.667-1.162a.352.352,0,0,1-.087-.491.353.353,0,0,1,.491-.088l1.667,1.162a.352.352,0,0,1,.088.49A.352.352,0,0,1-1554.415-851.567Zm5.4-1.213a.351.351,0,0,1-.311-.187.352.352,0,0,1,.146-.477l1.3-.694a.352.352,0,0,1,.477.146.353.353,0,0,1-.146.477l-1.3.694A.346.346,0,0,1-1549.019-852.78Zm-3.767-.562a.353.353,0,0,1-.309-.182l-.764-1.385a.353.353,0,0,1,.139-.479.353.353,0,0,1,.479.138l.764,1.385a.353.353,0,0,1-.138.479A.357.357,0,0,1-1552.786-853.342Zm1.923-.634a.31.31,0,0,1-.05,0,.352.352,0,0,1-.3-.4l.243-1.709a.346.346,0,0,1,.4-.3.352.352,0,0,1,.3.4l-.243,1.709A.352.352,0,0,1-1550.864-853.976Z" transform="translate(1556.674 856.391)" fill="#05222e"/>
      </g>
      <g id="path5000" transform="translate(2.63 5.034)">
        <path id="Path_1735" data-name="Path 1735" d="M-1543.991-832.092h0a1.684,1.684,0,0,1-1.366-1.255.86.86,0,0,1,.227-.734,1.822,1.822,0,0,1,1.221-.682l.078,0a.923.923,0,0,1,.786.752,1.776,1.776,0,0,1-.508,1.776A.743.743,0,0,1-1543.991-832.092Zm.088-1.966a1.142,1.142,0,0,0-.764.572c.067.3.477.689.676.689h0a.034.034,0,0,0,.024-.006,1.1,1.1,0,0,0,.241-1.021c-.022-.083-.075-.224-.177-.234Z" transform="translate(1545.372 834.763)" fill="#05222e"/>
      </g>
      <g id="path5021" transform="translate(5.084 3.459)">
        <path id="Path_1736" data-name="Path 1736" d="M-1534.818-840.826c-.079-.31.359-.783.666-.693a.666.666,0,0,1,.186.959A.617.617,0,0,1-1534.818-840.826Z" transform="translate(1534.828 841.531)" fill="#05222e"/>
      </g>
      <g id="path5023" transform="translate(5.867 5.707)">
        <path id="Path_1737" data-name="Path 1737" d="M-1531.439-831.229c-.1-.224.127-.646.373-.64.29.007.571.539.4.773C-1530.821-830.886-1531.328-830.993-1531.439-831.229Z" transform="translate(1531.464 831.869)" fill="#05222e"/>
      </g>
      <g id="path5025" transform="translate(4.928 7.785)">
        <path id="Path_1738" data-name="Path 1738" d="M-1535.469-822.275a.532.532,0,0,1,.4-.666.524.524,0,0,1,.373.666A.53.53,0,0,1-1535.469-822.275Z" transform="translate(1535.502 822.941)" fill="#05222e"/>
      </g>
    </g>
  </g>
</svg>
