<svg xmlns="http://www.w3.org/2000/svg" width="33.068" height="39.819" viewBox="0 0 33.068 39.819">
  <g id="Group_4780" data-name="Group 4780" transform="translate(0.5 0.5)">
    <path id="Path_1543" data-name="Path 1543" d="M385.916,57.642H390v1.431l15.19-.039V57.642h4.088a.975.975,0,0,1,.975.975V83.6a.975.975,0,0,1-.975.975H385.916a.975.975,0,0,1-.975-.975V58.617a.975.975,0,0,1,.975-.975" transform="translate(-381.566 -49.203)" fill="#f6a87a" fill-rule="evenodd"/>
    <path id="Path_1544" data-name="Path 1544" d="M387.1,71.953H367.185a1.688,1.688,0,0,1-1.688-1.688V39.885a1.688,1.688,0,0,1,1.688-1.688h6.751" transform="translate(-365.497 -33.134)" fill="none" stroke="#05222e" stroke-linecap="round" stroke-linejoin="round" stroke-width="1"/>
    <path id="Path_1545" data-name="Path 1545" d="M501.612,38.2h6.751a1.688,1.688,0,0,1,1.688,1.688v30.38a1.688,1.688,0,0,1-1.688,1.688h-3.336" transform="translate(-477.983 -33.134)" fill="none" stroke="#05222e" stroke-linecap="round" stroke-linejoin="round" stroke-width="1"/>
    <path id="Path_1546" data-name="Path 1546" d="M425.079,12.406a3.376,3.376,0,0,0-6.751,0h-3.376a.844.844,0,0,0-.844.844v5.063a.844.844,0,0,0,.844.844h13.5a.844.844,0,0,0,.844-.844V13.249a.844.844,0,0,0-.844-.844Z" transform="translate(-405.669 -9.03)" fill="none" stroke="#05222e" stroke-linecap="round" stroke-linejoin="round" stroke-width="1"/>
    <line id="Line_27" data-name="Line 27" x1="10.062" y1="0.019" transform="translate(14.959 15.021)" fill="none" stroke="#05222e" stroke-linecap="round" stroke-linejoin="round" stroke-width="1"/>
    <path id="Path_1548" data-name="Path 1548" d="M413.736,86.141l1,1,2.322-2.985" transform="translate(-405.362 -71.11)" fill="none" stroke="#05222e" stroke-linecap="round" stroke-linejoin="round" stroke-width="1"/>
    <line id="Line_28" data-name="Line 28" x1="10.062" y1="0.019" transform="translate(14.959 22.64)" fill="none" stroke="#05222e" stroke-linecap="round" stroke-linejoin="round" stroke-width="1"/>
    <path id="Path_1550" data-name="Path 1550" d="M413.736,130.031l1,1,2.322-2.986" transform="translate(-405.362 -107.381)" fill="none" stroke="#05222e" stroke-linecap="round" stroke-linejoin="round" stroke-width="1"/>
    <line id="Line_29" data-name="Line 29" x1="10.062" y1="0.019" transform="translate(14.959 30.26)" fill="none" stroke="#05222e" stroke-linecap="round" stroke-linejoin="round" stroke-width="1"/>
    <path id="Path_1552" data-name="Path 1552" d="M413.736,173.922l1,1,2.322-2.986" transform="translate(-405.362 -143.652)" fill="none" stroke="#05222e" stroke-linecap="round" stroke-linejoin="round" stroke-width="1"/>
  </g>
</svg>
