<svg xmlns="http://www.w3.org/2000/svg" width="44.485" height="32.213" viewBox="0 0 44.485 32.213">
  <g id="Group_4824" data-name="Group 4824" transform="translate(-702.204 -251.457)">
    <g id="Group_4822" data-name="Group 4822" transform="translate(719.081 256.197)">
      <circle id="Ellipse_62" data-name="Ellipse 62" cx="10.551" cy="10.551" r="10.551" transform="translate(0 0)" fill="#f6a87a"/>
      <circle id="Ellipse_63" data-name="Ellipse 63" cx="10.551" cy="10.551" r="10.551" transform="translate(0 0)" fill="none" stroke="#05222e" stroke-linecap="round" stroke-linejoin="round" stroke-width="1"/>
      <path id="Path_1689" data-name="Path 1689" d="M737.04,272.371a6.331,6.331,0,0,1,6.331-6.331" transform="translate(-732.819 -261.82)" fill="none" stroke="#05222e" stroke-linecap="round" stroke-linejoin="round" stroke-width="1"/>
      <path id="Path_1690" data-name="Path 1690" d="M760.339,291.212l5.1,4.965a2.237,2.237,0,0,0,3.164,0l0,0a2.237,2.237,0,0,0,0-3.164l-7.034-6.9" transform="translate(-742.151 -269.859)" fill="none" stroke="#05222e" stroke-linecap="round" stroke-linejoin="round" stroke-width="1"/>
    </g>
    <g id="Group_4823" data-name="Group 4823" transform="translate(702.736 252)">
      <path id="Path_1691" data-name="Path 1691" d="M722.39,254.8a.827.827,0,0,0-.995.964c.02.112.038.218.053.32a1.19,1.19,0,0,1-1.56,1.3,10.077,10.077,0,0,0-1.39-.385,1.186,1.186,0,0,1-.926-1.5,5.2,5.2,0,0,1,.8-1.4,1.216,1.216,0,0,0-.442-1.822,3.906,3.906,0,0,0-2.836,0,1.216,1.216,0,0,0-.443,1.822,5.194,5.194,0,0,1,.8,1.405,1.187,1.187,0,0,1-.929,1.5,10.033,10.033,0,0,0-1.393.388,1.2,1.2,0,0,1-1.629-1.106c0-.175.014-.364.033-.571a.9.9,0,0,0-.939-1,2.726,2.726,0,0,0-1.754,1.012.9.9,0,0,0,.392,1.312c.2.091.372.177.529.267a1.2,1.2,0,0,1,.131,1.945,10.236,10.236,0,0,0-1.03,1.023,1.189,1.189,0,0,1-1.765.061,5.186,5.186,0,0,1-.824-1.4,1.215,1.215,0,0,0-1.8-.528,3.9,3.9,0,0,0-1.418,2.455,1.216,1.216,0,0,0,1.357,1.294,5.169,5.169,0,0,1,1.624.013,1.187,1.187,0,0,1,.832,1.553,10.033,10.033,0,0,0-.382,1.51,1.2,1.2,0,0,1-1.817.838c-.129-.079-.263-.17-.406-.271a.9.9,0,0,0-1.331.317,2.728,2.728,0,0,0,0,2.025.9.9,0,0,0,1.332.316c.181-.128.348-.239.509-.332a1.2,1.2,0,0,1,1.748.85,10.092,10.092,0,0,0,.344,1.285,1.191,1.191,0,0,1-.831,1.563,5.21,5.21,0,0,1-1.621.011,1.216,1.216,0,0,0-1.357,1.294,3.9,3.9,0,0,0,1.418,2.456,1.215,1.215,0,0,0,1.8-.528,5.165,5.165,0,0,1,.826-1.4,1.187,1.187,0,0,1,1.76.056,10.222,10.222,0,0,0,1.21,1.174,1.2,1.2,0,0,1-.133,1.965c-.168.1-.358.192-.572.29a.9.9,0,0,0-.392,1.312,2.727,2.727,0,0,0,1.754,1.013.9.9,0,0,0,.94-1,5.5,5.5,0,0,1-.029-.809,1.194,1.194,0,0,1,1.6-1.016,10.031,10.031,0,0,0,1.294.351,1.176,1.176,0,0,1,.924,1.481,5.162,5.162,0,0,1-.8,1.42,1.216,1.216,0,0,0,.443,1.822,3.906,3.906,0,0,0,2.836,0,1.216,1.216,0,0,0,.442-1.823,5.129,5.129,0,0,1-.8-1.422,1.175,1.175,0,0,1,.921-1.48,9.95,9.95,0,0,0,1.267-.342,1.182,1.182,0,0,1,1.59,1.2c-.018.173-.048.36-.085.564a.827.827,0,0,0,.995.963" transform="translate(-702.736 -252)" fill="none" stroke="#05222e" stroke-linecap="round" stroke-linejoin="round" stroke-width="1"/>
      <circle id="Ellipse_64" data-name="Ellipse 64" cx="1.199" cy="1.199" r="1.199" transform="translate(9.592 8.393)" fill="none" stroke="#05222e" stroke-linecap="round" stroke-linejoin="round" stroke-width="1"/>
      <circle id="Ellipse_65" data-name="Ellipse 65" cx="0.6" cy="0.6" r="0.6" transform="translate(13.189 20.383)" fill="none" stroke="#05222e" stroke-linecap="round" stroke-linejoin="round" stroke-width="1"/>
      <circle id="Ellipse_66" data-name="Ellipse 66" cx="2.398" cy="2.398" r="2.398" transform="translate(7.194 14.388)" fill="none" stroke="#05222e" stroke-linecap="round" stroke-linejoin="round" stroke-width="1"/>
    </g>
  </g>
</svg>
