<svg xmlns="http://www.w3.org/2000/svg" width="21.146" height="43.094" viewBox="0 0 21.146 43.094">
  <g id="Group_4856" data-name="Group 4856" transform="translate(1325.553 838.256)">
    <circle id="Ellipse_75" data-name="Ellipse 75" cx="6" cy="6" r="6" transform="translate(-1316.82 -807.757)" fill="#f6a87a"/>
    <path id="Path_1739" data-name="Path 1739" d="M-1320.315-703.946s-.91-4.24,1.209-7.574" transform="translate(-3.314 -91.919)" fill="none" stroke="#05222e" stroke-linejoin="round" stroke-width="1"/>
    <path id="Path_1743" data-name="Path 1743" d="M-1317.634-807.144s7.733,2.767,7.908,3.813-.959,3.139-1.57,3.227a40.809,40.809,0,0,1-7.6-2.418A36.977,36.977,0,0,1-1317.634-807.144Z" fill="#fff"/>
    <path id="Path_1740" data-name="Path 1740" d="M-1317.76-777.287l-1.745,4.941,8.557,3.537a1.9,1.9,0,0,1,1.143,2.357c-.464,1.607-1.564,2.02-2.615,1.7,0,0-9.18-2.652-11.125-3.343-1.833-.651-1.491-2.635-1.491-3.524,0-2.925,2.331-13.358,3.906-15.276,1.467-1.788,4.353-2.521,6.23-.955,2.161,1.805,1.421,3.172,7.159,6.942,2.753,1.81,1.987,6.311-2.219,5.927,0,0,10.166,7.856,1.551,14.829" transform="translate(0 -35.717)" fill="none" stroke="#05222e" stroke-linecap="round" stroke-linejoin="round" stroke-width="1"/>
    <path id="Path_1741" data-name="Path 1741" d="M-1293.708-825.367a6.2,6.2,0,0,1-6.2-6.2,6.2,6.2,0,0,1,6.2-6.194,6.194,6.194,0,0,1,6.193,6.194A6.2,6.2,0,0,1-1293.708-825.367Z" transform="translate(-18.319 0)" fill="none" stroke="#05222e" stroke-linecap="round" stroke-linejoin="round" stroke-width="1"/>
  </g>
</svg>
