<svg xmlns="http://www.w3.org/2000/svg" width="27.886" height="36.377" viewBox="0 0 27.886 36.377">
  <g id="Group_4825" data-name="Group 4825" transform="translate(-701.236 -314.456)">
    <path id="Path_1692" data-name="Path 1692" d="M715.887,332.616H717.3a5.66,5.66,0,0,1,5.66,5.66v9.2a2.123,2.123,0,0,1-2.123,2.123H705.274a3.538,3.538,0,0,0-3.538,3.538h0a.708.708,0,0,0,.708.708h23.349a2.83,2.83,0,0,0,2.83-2.83V338.277A11.32,11.32,0,0,0,717.3,326.956h-1.415a2.831,2.831,0,0,1,2.331,4.435A3.02,3.02,0,0,1,715.887,332.616Z" transform="translate(0 -3.51)" fill="#f6a87a"/>
    <circle id="Ellipse_67" data-name="Ellipse 67" cx="2.705" cy="2.705" r="2.705" transform="translate(713.459 323.281)" fill="none" stroke="#05222e" stroke-linecap="round" stroke-linejoin="round" stroke-width="1"/>
    <path id="Path_1693" data-name="Path 1693" d="M718.811,325.2v-4.245h-7.075v12.736a1.416,1.416,0,0,0,1.415,1.415H717.4a1.415,1.415,0,0,0,1.415-1.415v-2.83" transform="translate(-2.925 -1.755)" fill="none" stroke="#05222e" stroke-linecap="round" stroke-linejoin="round" stroke-width="1"/>
    <line id="Line_36" data-name="Line 36" y2="3.607" transform="translate(714.36 315.165)" fill="none" stroke="#05222e" stroke-linecap="round" stroke-linejoin="round" stroke-width="1"/>
    <line id="Line_37" data-name="Line 37" x2="6.368" transform="translate(709.165 314.956)" fill="none" stroke="#05222e" stroke-linecap="round" stroke-linejoin="round" stroke-width="1"/>
    <line id="Line_38" data-name="Line 38" y1="3.607" transform="translate(709.852 315.165)" fill="none" stroke="#05222e" stroke-linecap="round" stroke-linejoin="round" stroke-width="1"/>
    <path id="Path_1694" data-name="Path 1694" d="M713.736,340.956v3.538a.708.708,0,0,0,.708.708h2.83a.707.707,0,0,0,.708-.708v-3.538" transform="translate(-3.51 -7.604)" fill="none" stroke="#05222e" stroke-linecap="round" stroke-linejoin="round" stroke-width="1"/>
    <line id="Line_39" data-name="Line 39" x1="12.624" transform="translate(707.147 342.217)" fill="none" stroke="#05222e" stroke-linecap="round" stroke-linejoin="round" stroke-width="1"/>
    <path id="Path_1695" data-name="Path 1695" d="M715.887,326.956H717.3a11.32,11.32,0,0,1,11.321,11.321v12.736a2.83,2.83,0,0,1-2.83,2.83H702.444a.708.708,0,0,1-.708-.708h0a3.538,3.538,0,0,1,3.538-3.538h15.566a2.123,2.123,0,0,0,2.123-2.123v-9.2a5.66,5.66,0,0,0-5.66-5.66h-1.415" transform="translate(0 -3.51)" fill="none" stroke="#05222e" stroke-linecap="round" stroke-linejoin="round" stroke-width="1"/>
  </g>
</svg>
