<svg xmlns="http://www.w3.org/2000/svg" width="33.829" height="39.366" viewBox="0 0 33.829 39.366">
  <g id="Group_4845" data-name="Group 4845" transform="translate(7693.5 10220.841)">
    <line id="Line_45" data-name="Line 45" x1="6.683" y2="6.682" transform="translate(-7689.768 -10188.864)" fill="none" stroke="#05222e" stroke-linecap="round" stroke-linejoin="round" stroke-width="1"/>
    <line id="Line_46" data-name="Line 46" x1="10.907" y1="10.905" transform="translate(-7674.567 -10208.288)" fill="none" stroke="#05222e" stroke-linecap="round" stroke-linejoin="round" stroke-width="1"/>
    <line id="Line_47" data-name="Line 47" x1="7.182" y1="7.181" transform="translate(-7667.56 -10211.568)" fill="none" stroke="#05222e" stroke-linecap="round" stroke-linejoin="round" stroke-width="1"/>
    <line id="Line_48" data-name="Line 48" x1="1.485" y1="1.487" transform="translate(-7675.899 -10203.005)" fill="none" stroke="#05222e" stroke-linecap="round" stroke-linejoin="round" stroke-width="1"/>
    <line id="Line_49" data-name="Line 49" x1="1.306" y1="1.306" transform="translate(-7682.917 -10196.011)" fill="none" stroke="#05222e" stroke-linecap="round" stroke-linejoin="round" stroke-width="1"/>
    <line id="Line_50" data-name="Line 50" x1="1.297" y1="1.299" transform="translate(-7679.407 -10199.508)" fill="none" stroke="#05222e" stroke-linecap="round" stroke-linejoin="round" stroke-width="1"/>
    <line id="Line_51" data-name="Line 51" y1="5.143" x2="5.143" transform="translate(-7670.981 -10209.848)" fill="none" stroke="#05222e" stroke-linecap="round" stroke-linejoin="round" stroke-width="1"/>
    <line id="Line_52" data-name="Line 52" y1="5.142" x2="5.142" transform="translate(-7667.244 -10206.108)" fill="none" stroke="#05222e" stroke-linecap="round" stroke-linejoin="round" stroke-width="1"/>
    <path id="Path_1706" data-name="Path 1706" d="M-3706.7-968.523l-13.1,13.1c-3.8-1.551-5.439-3.184-6.989-6.988l13.124-13.123" transform="translate(-3958.94 -9230.792)" fill="none" stroke="#05222e" stroke-linejoin="round" stroke-width="1"/>
    <path id="Rectangle_1197" data-name="Rectangle 1197" d="M1.39,0H9.774a1.393,1.393,0,0,1,1.393,1.393V4.607A1.391,1.391,0,0,1,9.776,6H1.392A1.392,1.392,0,0,1,0,4.606V1.39A1.39,1.39,0,0,1,1.39,0Z" transform="translate(-7690.471 -10220.341)" fill="none" stroke="#05222e" stroke-linejoin="round" stroke-width="1"/>
    <path id="Path_1707" data-name="Path 1707" d="M-3740-976.125h7.542v10.606H-3740" transform="translate(-3953 -9230.527)" fill="none" stroke="#05222e" stroke-linejoin="round" stroke-width="1"/>
    <line id="Line_53" data-name="Line 53" x2="5.452" transform="translate(-7692.837 -10203.058)" fill="none" stroke="#05222e" stroke-linejoin="round" stroke-width="1"/>
    <line id="Line_54" data-name="Line 54" x2="4.341" transform="translate(-7692.837 -10200.142)" fill="none" stroke="#05222e" stroke-linejoin="round" stroke-width="1"/>
    <path id="Path_1708" data-name="Path 1708" d="M-3717.218-990.1v2.505c2.277,1.084,3.688,2.928,3.688,4.706v2.745" transform="translate(-3963.245 -9224.243)" fill="none" stroke="#05222e" stroke-linejoin="round" stroke-width="1"/>
    <path id="Path_1709" data-name="Path 1709" d="M-3736.314-990.1v2.438A6.236,6.236,0,0,0-3740-982.89v13.711a1.63,1.63,0,0,0,1.632,1.632h4.745" transform="translate(-3953 -9224.243)" fill="none" stroke="#05222e" stroke-linejoin="round" stroke-width="1"/>
  </g>
</svg>
