<svg xmlns="http://www.w3.org/2000/svg" width="30.206" height="28.257" viewBox="0 0 30.206 28.257">
  <g id="Group_4859" data-name="Group 4859" transform="translate(1841.991 530.281)">
    <ellipse id="Ellipse_76" data-name="Ellipse 76" cx="7" cy="2" rx="7" ry="2" transform="translate(-1833.372 -513.841) rotate(-43)" fill="#f6a87a"/>
    <g id="Group_4858" data-name="Group 4858" transform="translate(-1841.991 -530.281)">
      <path id="Path_1744" data-name="Path 1744" d="M-1835.657-502.024c-1.2,0-1.417-1.03-1.59-1.858a3.211,3.211,0,0,0-.7-1.695,2.251,2.251,0,0,0-1.406-.415c-1.112-.1-2.634-.236-2.634-2.853a3.021,3.021,0,0,1,1.707-2.615,6.552,6.552,0,0,1,3.115-.795,59.075,59.075,0,0,0,7.2-5.944c1.764-1.608,3.306-3.089,4.458-4.284a9.763,9.763,0,0,0,2.036-2.462c.008-1.927.984-5.336,2.923-5.336,2.269,0,2.821,1.771,3.186,2.943.122.392.29.929.442,1.006a5.233,5.233,0,0,0,1.2.218,9,9,0,0,1,2.453.532,2.217,2.217,0,0,1,1.488,2.122,4.175,4.175,0,0,1-3.41,3.9,2.681,2.681,0,0,1-1.4-.479,2.779,2.779,0,0,0-1.527-.495c-.789,0-3.667,1.963-7.643,5.713a60.356,60.356,0,0,0-4.25,4.393c-1.728,2.018-1.748,2.539-1.748,2.561,0,.482.057,1.032.112,1.564.127,1.227.228,2.2-.255,2.678A4.919,4.919,0,0,1-1835.657-502.024Zm15.1-27.282c-.439,0-.932.528-1.32,1.413a7.922,7.922,0,0,0-.629,2.971c0,.248,0,.709-2.206,3.009-1.171,1.221-2.823,2.811-4.652,4.476-1.7,1.545-3.458,3.075-4.831,4.2-2.4,1.96-2.717,1.96-2.927,1.96-1.572,0-3.9.774-3.9,2.436,0,1.726.657,1.785,1.747,1.882a3.023,3.023,0,0,1,2.008.7,4.069,4.069,0,0,1,.969,2.185c.192.921.287,1.083.636,1.083a3.977,3.977,0,0,0,3.066-1.319,5.56,5.56,0,0,0-.025-1.888,16.671,16.671,0,0,1-.117-1.665c0-.378.205-1.12,1.982-3.194a61.267,61.267,0,0,1,4.321-4.468c1.487-1.4,6.48-5.979,8.312-5.979a3.722,3.722,0,0,1,2.016.626,1.858,1.858,0,0,0,.907.348,3.259,3.259,0,0,0,2.436-2.923c0-1.222-1.335-1.478-3.081-1.686a5.074,5.074,0,0,1-1.521-.314c-.523-.262-.715-.876-.937-1.587C-1818.711-528.37-1819.115-529.307-1820.555-529.307Zm-16.638,17.06Z" transform="translate(1841.991 530.281)" fill="#05222e"/>
    </g>
  </g>
</svg>
