<svg xmlns="http://www.w3.org/2000/svg" xmlns:xlink="http://www.w3.org/1999/xlink" width="171.425" height="168.397" viewBox="0 0 171.425 168.397">
  <defs>
    <clipPath id="clip-path">
      <rect id="Rectangle_1314" data-name="Rectangle 1314" width="171.425" height="168.397" fill="none"/>
    </clipPath>
  </defs>
  <g id="Group_5066" data-name="Group 5066" transform="translate(-8 0)">
    <g id="Group_5065" data-name="Group 5065" transform="translate(8 0)" clip-path="url(#clip-path)">
      <path id="Path_2419" data-name="Path 2419" d="M16.47,28.183a8.648,8.648,0,0,1-8.638-8.638V8.638a8.639,8.639,0,0,1,17.279,0V19.545a8.649,8.649,0,0,1-8.641,8.638m0-24.3a4.755,4.755,0,0,0-4.75,4.75V19.545a4.752,4.752,0,0,0,9.5,0V8.638a4.758,4.758,0,0,0-4.754-4.75" transform="translate(22.613 -0.001)" fill="#05222e"/>
      <path id="Path_2420" data-name="Path 2420" d="M40.461,28.183a8.648,8.648,0,0,1-8.638-8.638V8.638a8.639,8.639,0,0,1,17.279,0V19.545a8.649,8.649,0,0,1-8.641,8.638m0-24.3a4.755,4.755,0,0,0-4.75,4.75V19.545a4.752,4.752,0,0,0,9.5,0V8.638a4.758,4.758,0,0,0-4.754-4.75" transform="translate(91.882 -0.001)" fill="#05222e"/>
      <path id="Path_2421" data-name="Path 2421" d="M25.661,36.128a10.5,10.5,0,1,1,10.5-10.5,10.508,10.508,0,0,1-10.5,10.5m0-17.1a6.608,6.608,0,1,0,6.608,6.608,6.614,6.614,0,0,0-6.608-6.608" transform="translate(43.797 43.704)" fill="#f7aa87"/>
      <path id="Path_2422" data-name="Path 2422" d="M34.486,36.128a10.5,10.5,0,1,1,10.5-10.5,10.509,10.509,0,0,1-10.5,10.5m0-17.1a6.608,6.608,0,1,0,6.608,6.608,6.618,6.618,0,0,0-6.608-6.608" transform="translate(69.266 43.704)" fill="#f7aa87"/>
      <path id="Path_2423" data-name="Path 2423" d="M43.284,36.128a10.5,10.5,0,1,1,10.5-10.5,10.508,10.508,0,0,1-10.5,10.5m0-17.1a6.608,6.608,0,1,0,6.608,6.608,6.614,6.614,0,0,0-6.608-6.608" transform="translate(94.68 43.704)" fill="#f7aa87"/>
      <path id="Path_2424" data-name="Path 2424" d="M25.661,44.351a10.5,10.5,0,1,1,10.5-10.5,10.508,10.508,0,0,1-10.5,10.5m0-17.1a6.608,6.608,0,1,0,6.608,6.608,6.614,6.614,0,0,0-6.608-6.608" transform="translate(43.797 67.446)" fill="#f7aa87"/>
      <path id="Path_2425" data-name="Path 2425" d="M34.486,44.351a10.5,10.5,0,1,1,10.5-10.5,10.509,10.509,0,0,1-10.5,10.5m0-17.1a6.608,6.608,0,1,0,6.608,6.608,6.618,6.618,0,0,0-6.608-6.608" transform="translate(69.266 67.446)" fill="#f7aa87"/>
      <path id="Path_2426" data-name="Path 2426" d="M43.284,44.351a10.5,10.5,0,1,1,10.5-10.5,10.508,10.508,0,0,1-10.5,10.5m0-17.1a6.608,6.608,0,1,0,6.608,6.608,6.614,6.614,0,0,0-6.608-6.608" transform="translate(94.68 67.446)" fill="#f7aa87"/>
      <path id="Path_2427" data-name="Path 2427" d="M25.661,52.574a10.5,10.5,0,1,1,10.5-10.5,10.506,10.506,0,0,1-10.5,10.5m0-17.1a6.608,6.608,0,1,0,6.608,6.608,6.614,6.614,0,0,0-6.608-6.608" transform="translate(43.797 91.188)" fill="#f7aa87"/>
      <path id="Path_2428" data-name="Path 2428" d="M34.486,52.574a10.5,10.5,0,1,1,10.5-10.5,10.506,10.506,0,0,1-10.5,10.5m0-17.1a6.608,6.608,0,1,0,6.608,6.608,6.618,6.618,0,0,0-6.608-6.608" transform="translate(69.266 91.188)" fill="#f7aa87"/>
      <path id="Path_2429" data-name="Path 2429" d="M16.868,44.351a10.5,10.5,0,1,1,10.5-10.5,10.509,10.509,0,0,1-10.5,10.5m0-17.1a6.608,6.608,0,1,0,6.608,6.608,6.618,6.618,0,0,0-6.608-6.608" transform="translate(18.398 67.446)" fill="#f7aa87"/>
      <path id="Path_2430" data-name="Path 2430" d="M16.868,52.574a10.5,10.5,0,1,1,10.5-10.5,10.506,10.506,0,0,1-10.5,10.5m0-17.1a6.608,6.608,0,1,0,6.608,6.608,6.618,6.618,0,0,0-6.608-6.608" transform="translate(18.398 91.188)" fill="#f7aa87"/>
      <path id="Path_2431" data-name="Path 2431" d="M43.284,52.574a10.5,10.5,0,1,1,10.5-10.5,10.506,10.506,0,0,1-10.5,10.5m0-17.1a6.608,6.608,0,1,0,6.608,6.608,6.614,6.614,0,0,0-6.608-6.608" transform="translate(94.68 91.188)" fill="#f7aa87"/>
      <path id="Path_2432" data-name="Path 2432" d="M169.481,14.164H1.944a1.944,1.944,0,0,1,0-3.887H169.481a1.944,1.944,0,0,1,0,3.887" transform="translate(0 29.671)" fill="#05222e"/>
      <path id="Path_2433" data-name="Path 2433" d="M66.328,140.314a1.944,1.944,0,0,1-1.944-1.944V17.783a9.527,9.527,0,0,0-9.512-9.512h-17.2a1.944,1.944,0,1,1,0-3.887h17.2a13.418,13.418,0,0,1,13.4,13.4V138.371a1.944,1.944,0,0,1-1.944,1.944" transform="translate(103.154 12.657)" fill="#05222e"/>
      <path id="Path_2434" data-name="Path 2434" d="M1.944,140.314A1.944,1.944,0,0,1,0,138.371V17.783a13.426,13.426,0,0,1,13.4-13.4H32.389a1.944,1.944,0,1,1,0,3.887H13.4a9.532,9.532,0,0,0-9.512,9.512V138.371a1.944,1.944,0,0,1-1.944,1.944" transform="translate(0 12.657)" fill="#05222e"/>
      <path id="Path_2435" data-name="Path 2435" d="M26.713,57.664H13.4A13.426,13.426,0,0,1,0,44.265V40.3a1.944,1.944,0,0,1,3.887,0v3.969A9.534,9.534,0,0,0,13.4,53.777H26.713a1.944,1.944,0,1,1,0,3.887" transform="translate(0 110.732)" fill="#05222e"/>
      <path id="Path_2436" data-name="Path 2436" d="M51.984,57.664H38.67a1.944,1.944,0,1,1,0-3.887H51.984A9.527,9.527,0,0,0,61.5,44.265V40.3a1.944,1.944,0,0,1,3.887,0v3.969a13.418,13.418,0,0,1-13.4,13.4" transform="translate(106.038 110.732)" fill="#05222e"/>
      <path id="Path_2437" data-name="Path 2437" d="M102.845,46.207H7.852a1.944,1.944,0,1,1,0-3.887h94.993a1.944,1.944,0,1,1,0,3.887" transform="translate(17.058 122.188)" fill="#05222e"/>
      <path id="Path_2438" data-name="Path 2438" d="M88.187,8.271H13.944a1.944,1.944,0,1,1,0-3.887H88.187a1.944,1.944,0,0,1,0,3.887" transform="translate(34.647 12.657)" fill="#05222e"/>
      <path id="Path_2439" data-name="Path 2439" d="M88.668,8.271H14.425a1.944,1.944,0,0,1,0-3.887H88.668a1.944,1.944,0,0,1,0,3.887" transform="translate(36.036 12.657)" fill="#05222e"/>
      <path id="Path_2440" data-name="Path 2440" d="M92.147,8.271H13.22a1.944,1.944,0,0,1,0-3.887H92.147a1.944,1.944,0,0,1,0,3.887" transform="translate(32.557 12.657)" fill="#05222e"/>
    </g>
  </g>
</svg>
