<svg xmlns="http://www.w3.org/2000/svg" width="338.349" height="276.001" viewBox="0 0 338.349 276.001">
  <g id="Group_5313" data-name="Group 5313" transform="translate(-321.475 -146.64)">
    <g id="Group_5302" data-name="Group 5302" transform="translate(438.826 263.494)">
      <path id="Path_2540" data-name="Path 2540" d="M262.7,61.829c0,73.1-75.715,132.346-169.081,132.346a211.6,211.6,0,0,1-51.8-6.342V164.541c16.333,3.9,33.813,3.218,51.886,3.218,89.718,0,163.415-57.043,169-122.458.253,2.806,0,13.695,0,16.529" transform="translate(-41.817 -35.029)" fill="#c3dcf5"/>
      <path id="Path_2541" data-name="Path 2541" d="M262.7,51.911c0,2.694-.112,5.388-.365,8.054-5.585,65.415-79,117.192-168.716,117.192a223.157,223.157,0,0,1-51.8-6.006L93.622,41.64H262.113a88.929,88.929,0,0,1,.589,10.271" transform="translate(-41.817 -41.64)" fill="#e3f1ff"/>
    </g>
    <g id="Group_5303" data-name="Group 5303" transform="translate(321.475 146.64)">
      <path id="Path_2542" data-name="Path 2542" d="M117.351,163.05v23.292C49.3,169.252.047,119.3.047,60.339c0-2.834-.154-11.408.1-14.214C4.607,98.379,52.581,147.644,117.351,163.05" transform="translate(0 83.316)" fill="#f7daa5"/>
      <path id="Path_2543" data-name="Path 2543" d="M169.126,0V116.855l-51.8,129.512C52.551,230.96,4.844,185.554.382,133.3c-.253-2.666-.365-5.36-.365-8.054C.017,56.1,75.732,1.837,169.126,1.837" transform="translate(0.03)" fill="#ffe7ba"/>
    </g>
    <path id="Path_2544" data-name="Path 2544" d="M228.769,115.645H60.277V.67c88.68,0,161.448,50.626,168.492,114.975" transform="translate(430.354 147.85)" fill="#ffd1b5"/>
  </g>
</svg>
