<svg xmlns="http://www.w3.org/2000/svg" xmlns:xlink="http://www.w3.org/1999/xlink" width="57.218" height="70.137" viewBox="0 0 57.218 70.137">
  <defs>
    <clipPath id="clip-path">
      <rect id="Rectangle_1287" data-name="Rectangle 1287" width="57.218" height="70.137" fill="none"/>
    </clipPath>
  </defs>
  <g id="Group_5023" data-name="Group 5023" transform="translate(4 0)">
    <g id="Group_5013" data-name="Group 5013" transform="translate(-4 0)" clip-path="url(#clip-path)">
      <path id="Path_2226" data-name="Path 2226" d="M27.81,13.992a7,7,0,1,1,7-7,7.011,7.011,0,0,1-7,7m0-12.7a5.7,5.7,0,0,0,0,11.4,5.716,5.716,0,0,0,5.7-5.7,5.706,5.706,0,0,0-5.7-5.7" transform="translate(6.177 -0.001)" fill="#05222e"/>
      <path id="Path_2227" data-name="Path 2227" d="M53.3,24.223l-.988-.014c-.69-.01-1.367-.039-2.037-.086a44.42,44.42,0,0,1-18.2-5.863.24.24,0,0,0-.24.013c-.082.048-9.2,5.239-19.218,5.868-.676.048-1.358.067-2.048.067H9.591l.376-.9A23.325,23.325,0,0,1,24.659,9.995a1.551,1.551,0,0,1,1.6.447,6.584,6.584,0,0,0,9.278.459,6.937,6.937,0,0,0,.547-.563A1.531,1.531,0,0,1,37.7,9.856,23.223,23.223,0,0,1,52.913,23.309ZM25.105,11.228a.3.3,0,0,0-.082.012A22.021,22.021,0,0,0,11.57,22.9c.32-.01.639-.026.958-.049,9.645-.606,18.56-5.643,18.649-5.694a1.55,1.55,0,0,1,1.591.014,43.551,43.551,0,0,0,17.6,5.663q.467.031.94.053A21.932,21.932,0,0,0,37.334,11.1a.245.245,0,0,0-.258.075,7.61,7.61,0,0,1-.63.652A7.892,7.892,0,0,1,25.3,11.308a.251.251,0,0,0-.191-.08" transform="translate(2.846 2.905)" fill="#05222e"/>
      <path id="Path_2228" data-name="Path 2228" d="M19.639,34.92a7.126,7.126,0,0,0-.148-1.194,7.955,7.955,0,0,0-2.721-4.571,7.163,7.163,0,0,0-.98-.694,7.548,7.548,0,0,0-2.452-.98,7.615,7.615,0,0,0-1.535-.185h-.315a7.2,7.2,0,0,0-1.268.13,7.21,7.21,0,0,0-1.166.3,7.979,7.979,0,0,0-3.7,2.6,8.236,8.236,0,0,0-.676,1,8.01,8.01,0,0,0-1.065,3.822A7.76,7.76,0,0,0,3.7,36.464a7,7,0,0,0,.259,1.176A8.018,8.018,0,0,0,7.583,42.23a7.461,7.461,0,0,0,1.092.546,8.139,8.139,0,0,0,2.785.555H11.8a8.619,8.619,0,0,0,1.388-.148,8.1,8.1,0,0,0,1.148-.324,6.6,6.6,0,0,0,.925-.4,8.3,8.3,0,0,0,1.546-1.027,7.481,7.481,0,0,0,.935-.934,9.436,9.436,0,0,0,.721-.973v-.009a7.976,7.976,0,0,0,1.185-4.034C19.649,35.3,19.649,35.105,19.639,34.92Zm-4.33,2.332a2.12,2.12,0,0,1-.49.056,2.4,2.4,0,0,1-1.564-.574v-.009a2.382,2.382,0,0,1-.852-1.832,2.272,2.272,0,0,1,.167-.878,2.423,2.423,0,0,1,1.555-1.436,2.459,2.459,0,0,1,.694-.1,2.412,2.412,0,0,1,.49,4.775Z" transform="translate(1.071 8.099)" fill="none" stroke="#05222e" stroke-linecap="round" stroke-width="1"/>
      <path id="Path_2229" data-name="Path 2229" d="M15.221,33.706a2.414,2.414,0,0,1-1.924,2.36,2.2,2.2,0,0,1-.49.054,2.409,2.409,0,0,1-1.564-.573v-.009a2.384,2.384,0,0,1-.852-1.832,2.278,2.278,0,0,1,.167-.879,2.422,2.422,0,0,1,1.554-1.434,2.475,2.475,0,0,1,.7-.1,2.416,2.416,0,0,1,2.415,2.415" transform="translate(3.084 9.285)" fill="#f6a87a"/>
      <path id="Path_2230" data-name="Path 2230" d="M12.955,36.917a3.071,3.071,0,0,1-1.983-.727.759.759,0,0,1-.073-.071,3.034,3.034,0,0,1-1.008-2.265,2.937,2.937,0,0,1,.214-1.124,3.062,3.062,0,1,1,3.468,4.12,2.721,2.721,0,0,1-.619.069M11.87,35.248a1.768,1.768,0,1,0-.56-2.037,1.673,1.673,0,0,0-.121.642,1.738,1.738,0,0,0,.619,1.337.534.534,0,0,1,.062.058" transform="translate(2.935 9.138)" fill="#05222e"/>
      <path id="Path_2231" data-name="Path 2231" d="M31.76,65.6a1.7,1.7,0,0,1-.63-.124.673.673,0,0,1-.117-.062,36.428,36.428,0,0,1-17.925-19.14.649.649,0,0,1,.3-.831A7.216,7.216,0,0,0,14.8,44.5a6.51,6.51,0,0,0,.861-.862A9.917,9.917,0,0,0,16.3,42.8a.626.626,0,0,1,.035-.065,7.262,7.262,0,0,0,1.083-3.7v-.546a6.636,6.636,0,0,0-.139-1.045,7.29,7.29,0,0,0-2.507-4.227,5.621,5.621,0,0,0-.882-.622,6.906,6.906,0,0,0-2.26-.914,6.184,6.184,0,0,0-1.41-.167H9.911a.65.65,0,0,1-.646-.581,61.21,61.21,0,0,1-.327-7.615v-.467A1.556,1.556,0,0,1,9.4,21.737a1.629,1.629,0,0,1,1.074-.46h.293c.656,0,1.3-.013,1.946-.064,9.618-.607,18.3-5.493,18.661-5.7a1.538,1.538,0,0,1,1.6.031A43.767,43.767,0,0,0,50.558,21.2q.965.056,1.963.077H53a1.682,1.682,0,0,1,1.091.446,1.544,1.544,0,0,1,.466,1.123v.48c.119,6.112-.607,17.912-6.8,28.151a.647.647,0,0,1-1,.13,3.592,3.592,0,0,0-1.289-.79,4.189,4.189,0,0,0-5.64,3.916,4.066,4.066,0,0,0,.669,2.26,3.918,3.918,0,0,0,1.07,1.127.648.648,0,0,1,.067,1,36.677,36.677,0,0,1-9.226,6.323,1.877,1.877,0,0,1-.468.13.613.613,0,0,1-.178.026m-.1-1.312.019.005a.71.71,0,0,0,.2-.034A35.525,35.525,0,0,0,40.2,58.673a5.05,5.05,0,0,1-.8-.979,5.322,5.322,0,0,1-.878-2.963A5.479,5.479,0,0,1,44,49.259a5.415,5.415,0,0,1,1.913.34,5.049,5.049,0,0,1,1.114.564c5.672-9.809,6.345-20.971,6.231-26.826v-.493a.236.236,0,0,0-.07-.189.335.335,0,0,0-.222-.083h-.46c-.7-.013-1.365-.04-2.035-.079a44.816,44.816,0,0,1-18.2-5.864.257.257,0,0,0-.259.01c-.372.213-9.3,5.241-19.209,5.866-.669.052-1.347.066-2.037.066h-.261a.316.316,0,0,0-.189.083.244.244,0,0,0-.082.189v.48a59.51,59.51,0,0,0,.263,6.891,7.579,7.579,0,0,1,1.412.193,8.118,8.118,0,0,1,2.651,1.07,6.615,6.615,0,0,1,1.053.746,8.644,8.644,0,0,1,2.933,4.939,7.83,7.83,0,0,1,.167,1.279v.6a8.563,8.563,0,0,1-1.238,4.308.562.562,0,0,1-.048.092,10.646,10.646,0,0,1-.772,1.034A7.59,7.59,0,0,1,15.636,45.5a7.989,7.989,0,0,1-1.123.8A35.017,35.017,0,0,0,31.577,64.236c.013.006.049.029.082.049" transform="translate(2.649 4.54)" fill="#05222e"/>
      <path id="Path_2232" data-name="Path 2232" d="M41.907,46.817a4.826,4.826,0,0,1-7.643,3.914,4.684,4.684,0,0,1-1.231-1.3,4.763,4.763,0,0,1-.778-2.618,4.834,4.834,0,0,1,4.83-4.83,4.566,4.566,0,0,1,1.675.306,4.36,4.36,0,0,1,1.526.925,4.77,4.77,0,0,1,1.62,3.6" transform="translate(9.572 12.459)" fill="#f6a87a"/>
      <path id="Path_2233" data-name="Path 2233" d="M37.233,52.434a5.436,5.436,0,0,1-3.2-1.03,5.354,5.354,0,0,1-1.4-1.472,5.419,5.419,0,0,1-.879-2.967,5.487,5.487,0,0,1,5.479-5.479,5.21,5.21,0,0,1,1.913.35,4.991,4.991,0,0,1,1.735,1.056,5.467,5.467,0,0,1-3.648,9.541m0-9.65a4.186,4.186,0,0,0-4.181,4.182,4.116,4.116,0,0,0,.672,2.264,4.031,4.031,0,0,0,1.066,1.123,4.173,4.173,0,0,0,5.218-6.5,3.722,3.722,0,0,0-1.316-.8,3.928,3.928,0,0,0-1.459-.268" transform="translate(9.423 12.311)" fill="#05222e"/>
      <path id="Path_2234" data-name="Path 2234" d="M2.741,41.221a.646.646,0,0,1-.516-.257.639.639,0,0,1-.132-.39.649.649,0,0,1,.255-.517l3.207-2.435a.649.649,0,1,1,.785,1.034L3.134,41.089a.649.649,0,0,1-.393.132" transform="translate(0.621 11.124)" fill="#05222e"/>
      <path id="Path_2235" data-name="Path 2235" d="M4.552,33.651a.679.679,0,0,1-.16-.019l-3.9-.989A.649.649,0,0,1,0,32.015a.629.629,0,0,1,.021-.161.646.646,0,0,1,.787-.469l3.9.989A.649.649,0,0,1,5.2,33a.619.619,0,0,1-.021.16.646.646,0,0,1-.628.489" transform="translate(0 9.307)" fill="#05222e"/>
      <path id="Path_2236" data-name="Path 2236" d="M7.261,29.705a.647.647,0,0,1-.59-.38L5.009,25.657a.633.633,0,0,1-.058-.267.648.648,0,0,1,1.238-.268l1.661,3.667a.659.659,0,0,1,.058.268.647.647,0,0,1-.648.648" transform="translate(1.469 7.341)" fill="#05222e"/>
      <path id="Path_2237" data-name="Path 2237" d="M12.453,29.362a.657.657,0,0,1-.3-.071.648.648,0,0,1-.281-.873l1.832-3.584a.648.648,0,0,1,1.225.294.637.637,0,0,1-.071.3L13.03,29.009a.65.65,0,0,1-.577.353" transform="translate(3.503 7.264)" fill="#05222e"/>
      <path id="Path_2238" data-name="Path 2238" d="M16.18,32.881a.648.648,0,0,1-.128-1.284l3.946-.8a.648.648,0,0,1,.778.637.647.647,0,0,1-.519.634l-3.946.8a.65.65,0,0,1-.131.013" transform="translate(4.609 9.134)" fill="#05222e"/>
      <path id="Path_2239" data-name="Path 2239" d="M18.345,40.787a.642.642,0,0,1-.416-.152l-3.088-2.583a.651.651,0,0,1-.232-.5.643.643,0,0,1,.15-.414.65.65,0,0,1,.914-.082l3.088,2.584a.648.648,0,0,1-.416,1.145" transform="translate(4.335 10.951)" fill="#05222e"/>
      <path id="Path_2240" data-name="Path 2240" d="M10.3,44.938h-.016a.648.648,0,0,1-.633-.648v-.016l.095-4.025a.665.665,0,0,1,.664-.633.648.648,0,0,1,.633.648v.014l-.095,4.026a.649.649,0,0,1-.648.633" transform="translate(2.865 11.755)" fill="#05222e"/>
      <path id="Path_2241" data-name="Path 2241" d="M39.217,31.029c-.013,0-.013.013-.026.013L27.871,42.362a.559.559,0,0,1-.415.182l-.013.013a.528.528,0,0,1-.415-.195l-6.341-6.328a.6.6,0,0,1-.013-.843.013.013,0,0,0,.013-.013l3.242-3.229a.6.6,0,0,1,.843-.026v.026l2.3,2.282,7.664-7.651a.584.584,0,0,1,.843-.013c.013,0,.013,0,.013.013l3.6,3.6a.6.6,0,0,1,.026.843" transform="translate(6.085 7.832)" fill="#f6a87a"/>
      <path id="Path_2242" data-name="Path 2242" d="M27.591,43.352a1.175,1.175,0,0,1-.922-.437L20.377,36.64a1.269,1.269,0,0,1-.371-.9,1.207,1.207,0,0,1,.354-.86l.018-.018,3.242-3.229a1.18,1.18,0,0,1,.813-.375,1.317,1.317,0,0,1,.919.325.665.665,0,0,1,.119.144l1.742,1.732,7.207-7.2a1.217,1.217,0,0,1,.869-.375,1.2,1.2,0,0,1,.883.357l.021.019,3.6,3.6a1.182,1.182,0,0,1,.377.835,1.263,1.263,0,0,1-.337.912.623.623,0,0,1-.1.086L28.478,42.968a1.164,1.164,0,0,1-.733.363.623.623,0,0,1-.154.021M21.279,35.8l6.336,6.233L38.863,30.748,35.28,27.191l-.018-.017-7.589,7.664a.648.648,0,0,1-.916,0l-2.286-2.272L21.3,35.777l-.022.022" transform="translate(5.937 7.683)" fill="#05222e"/>
    </g>
  </g>
</svg>
