<svg id="Group_5032" data-name="Group 5032" xmlns="http://www.w3.org/2000/svg" xmlns:xlink="http://www.w3.org/1999/xlink" width="47.234" height="68.383" viewBox="0 0 47.234 68.383">
  <defs>
    <clipPath id="clip-path">
      <rect id="Rectangle_1294" data-name="Rectangle 1294" width="47.234" height="68.383" fill="none"/>
    </clipPath>
  </defs>
  <g id="Group_5031" data-name="Group 5031" transform="translate(0 0)" clip-path="url(#clip-path)">
    <path id="Path_2369" data-name="Path 2369" d="M35.019,40.231v1.552l4.343,4.329a9.025,9.025,0,0,1,0,12.745L32.57,65.65a6.223,6.223,0,0,1-8.772,0c-.142-.157-.256-.328-.384-.484a5.966,5.966,0,0,1-.4.484,6.223,6.223,0,0,1-8.772,0L7.449,58.858a9.007,9.007,0,0,1,0-12.731l4.343-4.343V40.231l-.7.712A6.209,6.209,0,0,1,.5,36.557a6.1,6.1,0,0,1,1.823-4.386l8.872-8.886a7.608,7.608,0,0,1,4.9-2.207,11.7,11.7,0,0,1-3.5-4.756A11.623,11.623,0,0,1,23.4.5a11.613,11.613,0,0,1,7.377,20.578,7.789,7.789,0,0,1,4.842,2.207L44.5,32.171a6.195,6.195,0,0,1-4.386,10.581,6.148,6.148,0,0,1-4.386-1.809Z" transform="translate(0.212 0.212)" fill="#fff"/>
    <path id="Path_2370" data-name="Path 2370" d="M28.4,68.383a6.861,6.861,0,0,1-4.778-1.908,6.935,6.935,0,0,1-9.665-.107l-6.794-6.8a9.717,9.717,0,0,1,0-13.738l2.918-2.918A6.917,6.917,0,0,1,0,36.769a6.824,6.824,0,0,1,2.034-4.893L10.9,22.994a8.183,8.183,0,0,1,3.842-2.177A12.307,12.307,0,0,1,23.611,0a12.327,12.327,0,0,1,8.915,20.834,8.358,8.358,0,0,1,3.806,2.159l8.888,8.888A6.919,6.919,0,0,1,37.166,42.92l2.911,2.9a9.736,9.736,0,0,1,0,13.751l-6.794,6.794a6.865,6.865,0,0,1-4.89,2.018m-4.771-3.717a.709.709,0,0,1,.551.262l.161.208c.063.083.127.167.2.246a5.512,5.512,0,0,0,7.743-.024l6.793-6.793a8.313,8.313,0,0,0,0-11.74L34.728,42.5a.712.712,0,0,1-.209-.5V40.443a.711.711,0,0,1,1.215-.5l.712.712a5.644,5.644,0,0,0,7.768,0,5.506,5.506,0,0,0,0-7.761L35.325,24a7.07,7.07,0,0,0-4.4-2,.711.711,0,0,1-.39-1.259,10.89,10.89,0,1,0-17.07-4.464,11.033,11.033,0,0,0,3.291,4.464.712.712,0,0,1-.4,1.26,6.861,6.861,0,0,0-4.446,2l-8.87,8.886a5.414,5.414,0,0,0-1.615,3.883,5.508,5.508,0,0,0,1.618,3.886,5.646,5.646,0,0,0,7.765-.007l.688-.7a.713.713,0,0,1,1.222.5V42a.712.712,0,0,1-.209.5L8.166,46.841a8.294,8.294,0,0,0,0,11.724l6.793,6.793a5.645,5.645,0,0,0,7.764,0,2.43,2.43,0,0,0,.219-.262l.132-.168a.709.709,0,0,1,.551-.262" transform="translate(0 0)" fill="#f6a87a"/>
    <path id="Path_2371" data-name="Path 2371" d="M19.4,20.953a9.5,9.5,0,1,1,3.433-.648,9.427,9.427,0,0,1-3.433.648M16.49,3.973h0a8.049,8.049,0,1,0,10.417,4.59A8.059,8.059,0,0,0,16.49,3.973" transform="translate(4.211 0.848)" fill="#05222e"/>
    <path id="Path_2372" data-name="Path 2372" d="M6.066,33.866A4.066,4.066,0,0,1,3.19,26.925l8.878-8.878A5.575,5.575,0,0,1,16.034,16.4H29.5a5.572,5.572,0,0,1,3.967,1.645l8.879,8.878a4.067,4.067,0,1,1-5.752,5.752l-4.352-4.353v5.45H13.295v-5.45L8.943,32.677a4.062,4.062,0,0,1-2.877,1.189m9.968-16.039a4.165,4.165,0,0,0-2.961,1.228L4.2,27.932A2.643,2.643,0,0,0,7.934,31.67l6.784-6.784V32.35h16.1V24.886L37.6,31.67a2.643,2.643,0,0,0,3.737-3.738l-8.88-8.878A4.157,4.157,0,0,0,29.5,17.827Z" transform="translate(0.848 6.956)" fill="#05222e"/>
    <path id="Path_2373" data-name="Path 2373" d="M16.708,52.979a4.055,4.055,0,0,1-2.875-1.188L7.043,45a6.869,6.869,0,0,1,0-9.718l5.679-5.678L20.2,37.087l-4.786,4.786,4.167,4.165a4.064,4.064,0,0,1-2.877,6.941M12.722,31.619,8.049,36.29a5.447,5.447,0,0,0,0,7.7l6.791,6.79a2.643,2.643,0,0,0,3.738-3.738L13.4,41.873l4.786-4.786Z" transform="translate(2.133 12.554)" fill="#05222e"/>
    <path id="Path_2374" data-name="Path 2374" d="M21.149,52.976a4.064,4.064,0,0,1-2.877-6.939l4.167-4.167-4.786-4.786L25.135,29.6l5.679,5.678a6.871,6.871,0,0,1,0,9.719l-6.79,6.79a4.057,4.057,0,0,1-2.875,1.188M19.667,37.084l4.786,4.786-5.174,5.174a2.643,2.643,0,0,0,3.738,3.738l6.79-6.79a5.447,5.447,0,0,0,0-7.7l-4.674-4.672Z" transform="translate(7.245 12.553)" fill="#05222e"/>
    <path id="Path_2375" data-name="Path 2375" d="M10.431,28.1v3.144l6.475,6.475h4.577l6.475-6.475V28.1Z" transform="translate(4.423 11.915)" fill="#f6a87a"/>
    <path id="Path_2376" data-name="Path 2376" d="M21.99,38.643H16.823L9.931,31.75V27.6H28.882V31.75Zm-4.577-1.424H21.4l6.058-6.058V29.023h-16.1v2.138Z" transform="translate(4.211 11.703)" fill="#191919"/>
  </g>
</svg>
