<svg xmlns="http://www.w3.org/2000/svg" xmlns:xlink="http://www.w3.org/1999/xlink" width="69.722" height="64.49" viewBox="0 0 69.722 64.49">
  <defs>
    <clipPath id="clip-path">
      <rect id="Rectangle_1288" data-name="Rectangle 1288" width="69.722" height="64.49" fill="none"/>
    </clipPath>
  </defs>
  <g id="Group_5021" data-name="Group 5021" transform="translate(0 0)">
    <g id="Group_5015" data-name="Group 5015" transform="translate(0 0)" clip-path="url(#clip-path)">
      <path id="Path_2243" data-name="Path 2243" d="M44.683,45.458A14.988,14.988,0,0,1,39.6,44.446a14.982,14.982,0,0,1-8.612-9.368,12.657,12.657,0,0,1-.47-2.151,13.367,13.367,0,0,1-.149-2.41A14.583,14.583,0,0,1,40.29,16.989a15.86,15.86,0,0,1,4.428-.777h.566a14.9,14.9,0,0,1,2.809.337,13.834,13.834,0,0,1,4.482,1.794,12.64,12.64,0,0,1,1.783,1.267,14.563,14.563,0,0,1,4.958,8.337,12.947,12.947,0,0,1,.267,2.179c.023.319.023.673.023,1.01v.012a14.615,14.615,0,0,1-2.07,7.2v.012l-.1.175a18.535,18.535,0,0,1-1.308,1.752A13.017,13.017,0,0,1,54.419,42a15.509,15.509,0,0,1-2.809,1.87,12.906,12.906,0,0,1-1.694.726,14.091,14.091,0,0,1-2.083.586,16.837,16.837,0,0,1-2.532.278Zm.587-28.034h-.535a14.621,14.621,0,0,0-4.057.713,13.371,13.371,0,0,0-6.2,4.353,13.1,13.1,0,0,0-1.12,1.668,13.32,13.32,0,0,0-1.779,6.387,12.148,12.148,0,0,0,.136,2.207,11.371,11.371,0,0,0,.43,1.964,13.758,13.758,0,0,0,7.907,8.606,13.71,13.71,0,0,0,4.641.924h.588a15.615,15.615,0,0,0,2.317-.255,13.076,13.076,0,0,0,1.9-.535,11.7,11.7,0,0,0,1.548-.662,14.218,14.218,0,0,0,2.6-1.728A11.745,11.745,0,0,0,55.2,39.509a17.06,17.06,0,0,0,1.154-1.534l.059-.11a13.4,13.4,0,0,0,1.98-6.735c0-.308,0-.63-.022-.937a11.771,11.771,0,0,0-.244-2,13.359,13.359,0,0,0-4.551-7.654,11.841,11.841,0,0,0-1.631-1.157,12.675,12.675,0,0,0-4.105-1.644,13.7,13.7,0,0,0-2.572-.31M59,31.136h0Z" transform="translate(6.45 3.444)" fill="#05222e"/>
      <path id="Path_2244" data-name="Path 2244" d="M31.023,38.114a.606.606,0,0,1-.6-.532.522.522,0,0,1,0-.075.606.606,0,0,1,.531-.6l4.206-.518a.594.594,0,0,1,.677.527.521.521,0,0,1,0,.075.607.607,0,0,1-.532.6l-4.206.518a.522.522,0,0,1-.075,0" transform="translate(6.462 7.729)" fill="#05222e"/>
      <path id="Path_2245" data-name="Path 2245" d="M33.044,34.976a.541.541,0,0,1-.108-.01l-4.172-.744a.606.606,0,0,1-.5-.6.807.807,0,0,1,.008-.107.609.609,0,0,1,.7-.49l4.172.744a.606.606,0,0,1,.5.6.659.659,0,0,1-.01.107.606.606,0,0,1-.6.5" transform="translate(6.004 7.014)" fill="#05222e"/>
      <path id="Path_2246" data-name="Path 2246" d="M31.7,31.912a.605.605,0,0,1-.278-.068L27.652,29.9a.606.606,0,1,1,.557-1.077l3.767,1.941a.606.606,0,0,1-.278,1.145" transform="translate(5.804 6.109)" fill="#05222e"/>
      <path id="Path_2247" data-name="Path 2247" d="M31.318,28.59a.6.6,0,0,1-.426-.173l-3.027-2.964a.614.614,0,0,1-.181-.433.6.6,0,0,1,.172-.426.61.61,0,0,1,.858-.008l3.027,2.966a.606.606,0,0,1,.008.857.6.6,0,0,1-.433.182" transform="translate(5.881 5.186)" fill="#05222e"/>
      <path id="Path_2248" data-name="Path 2248" d="M31.932,25.3a.6.6,0,0,1-.532-.318l-2.019-3.726a.6.6,0,0,1-.075-.289.607.607,0,0,1,1.14-.29l2.017,3.727a.606.606,0,0,1-.531.895" transform="translate(6.225 4.326)" fill="#05222e"/>
      <path id="Path_2249" data-name="Path 2249" d="M33.486,22.341a.606.606,0,0,1-.593-.487L32.061,17.7a.584.584,0,0,1-.012-.12.6.6,0,0,1,.489-.593.612.612,0,0,1,.713.475l.831,4.155a.576.576,0,0,1,.012.12.6.6,0,0,1-.487.593.576.576,0,0,1-.12.012" transform="translate(6.808 3.606)" fill="#05222e"/>
      <path id="Path_2250" data-name="Path 2250" d="M35.924,19.972l-.063,0a.607.607,0,0,1-.544-.6.529.529,0,0,1,0-.062l.429-4.216a.617.617,0,0,1,.664-.542.607.607,0,0,1,.546.6.528.528,0,0,1,0,.062l-.43,4.217a.606.606,0,0,1-.6.544" transform="translate(7.502 3.09)" fill="#05222e"/>
      <path id="Path_2251" data-name="Path 2251" d="M39.091,18.4a.605.605,0,0,1-.558-.843l1.654-3.9a.606.606,0,0,1,1.164.238.586.586,0,0,1-.048.236l-1.654,3.9a.6.6,0,0,1-.558.37" transform="translate(8.175 2.823)" fill="#05222e"/>
      <path id="Path_2252" data-name="Path 2252" d="M42.564,17.774a.607.607,0,0,1-.464-1l2.73-3.242a.607.607,0,0,1,.929.782l-2.73,3.241a.608.608,0,0,1-.464.216" transform="translate(8.913 2.83)" fill="#05222e"/>
      <path id="Path_2253" data-name="Path 2253" d="M46.035,18.141a.606.606,0,0,1-.329-1.115l3.563-2.293a.607.607,0,0,1,.839.182.6.6,0,0,1,.1.326.609.609,0,0,1-.278.512l-3.563,2.291a.609.609,0,0,1-.329.1" transform="translate(9.65 3.109)" fill="#05222e"/>
      <path id="Path_2254" data-name="Path 2254" d="M49.194,19.472a.605.605,0,0,1-.583-.444.587.587,0,0,1-.023-.164.605.605,0,0,1,.443-.582l4.081-1.14a.6.6,0,0,1,.748.421.633.633,0,0,1,.022.164.606.606,0,0,1-.443.583l-4.081,1.138a.593.593,0,0,1-.164.023" transform="translate(10.321 3.637)" fill="#05222e"/>
      <path id="Path_2255" data-name="Path 2255" d="M56,21.781h-.017l-4.236-.114a.608.608,0,0,1-.589-.6v-.018a.606.606,0,0,1,.606-.589h.017l4.236.114a.606.606,0,0,1,.589.6v.018a.606.606,0,0,1-.606.589" transform="translate(10.866 4.345)" fill="#05222e"/>
      <path id="Path_2256" data-name="Path 2256" d="M57.522,26.072a.6.6,0,0,1-.194-.032l-4.014-1.358a.607.607,0,0,1,.389-1.149l4.013,1.358a.607.607,0,0,1,.412.575.637.637,0,0,1-.032.194.606.606,0,0,1-.575.412" transform="translate(11.237 4.992)" fill="#05222e"/>
      <path id="Path_2257" data-name="Path 2257" d="M57.714,30.62a.605.605,0,0,1-.355-.115l-3.436-2.481a.606.606,0,0,1,.71-.982l3.436,2.481a.607.607,0,0,1-.355,1.1" transform="translate(11.401 5.72)" fill="#05222e"/>
      <path id="Path_2258" data-name="Path 2258" d="M56.557,35.022a.606.606,0,0,1-.484-.241L53.521,31.4a.613.613,0,0,1-.121-.365.606.606,0,0,1,1.09-.366l2.551,3.384a.606.606,0,0,1-.484.971" transform="translate(11.343 6.463)" fill="#05222e"/>
      <path id="Path_2259" data-name="Path 2259" d="M54.155,38.89a.605.605,0,0,1-.57-.4L52.144,34.5a.589.589,0,0,1-.036-.207.605.605,0,0,1,1.175-.2l1.442,3.985a.616.616,0,0,1,.036.206.607.607,0,0,1-.4.57.582.582,0,0,1-.206.036" transform="translate(11.069 7.157)" fill="#05222e"/>
      <path id="Path_2260" data-name="Path 2260" d="M50.719,41.876a.605.605,0,0,1-.6-.577l-.2-4.234v-.029a.605.605,0,0,1,.578-.6.615.615,0,0,1,.633.576l.2,4.234v.029a.607.607,0,0,1-.578.606h-.028" transform="translate(10.602 7.739)" fill="#05222e"/>
      <path id="Path_2261" data-name="Path 2261" d="M46.74,43.718a.582.582,0,0,1-.15-.019.606.606,0,0,1-.456-.587.6.6,0,0,1,.019-.152l1.054-4.1a.606.606,0,0,1,1.193.15.655.655,0,0,1-.018.152l-1.055,4.105a.6.6,0,0,1-.587.455" transform="translate(9.8 8.157)" fill="#05222e"/>
      <path id="Path_2262" data-name="Path 2262" d="M42.421,44.248a.606.606,0,0,1-.606-.606.6.6,0,0,1,.09-.318l2.218-3.612a.606.606,0,0,1,1.123.318.6.6,0,0,1-.09.318L42.938,43.96a.6.6,0,0,1-.517.289" transform="translate(8.883 8.375)" fill="#05222e"/>
      <path id="Path_2263" data-name="Path 2263" d="M38.115,43.426a.606.606,0,0,1-.4-1.061l3.184-2.8a.606.606,0,1,1,.8.911l-3.184,2.8a.6.6,0,0,1-.4.152" transform="translate(7.968 8.373)" fill="#05222e"/>
      <path id="Path_2264" data-name="Path 2264" d="M34.2,41.317a.606.606,0,0,1-.249-1.159l3.865-1.735a.608.608,0,0,1,.8.3.61.61,0,0,1-.3.8l-3.866,1.735a.6.6,0,0,1-.249.053" transform="translate(7.136 8.151)" fill="#05222e"/>
      <path id="Path_2265" data-name="Path 2265" d="M23.288,3.424a.605.605,0,0,1-.53-.9l1.107-2a.606.606,0,0,1,1.061.588l-1.108,2a.6.6,0,0,1-.53.313" transform="translate(4.818 0.046)" fill="#05222e"/>
      <path id="Path_2266" data-name="Path 2266" d="M25.51,5.838a.606.606,0,0,1-.227-1.168l1.925-.78a.606.606,0,1,1,.455,1.123l-1.927.78a.6.6,0,0,1-.227.045" transform="translate(5.29 0.817)" fill="#05222e"/>
      <path id="Path_2267" data-name="Path 2267" d="M27.625,10.419a.61.61,0,0,1-.166-.023l-1.944-.554a.606.606,0,1,1,.331-1.165l1.945.553a.606.606,0,0,1-.166,1.189" transform="translate(5.326 1.838)" fill="#05222e"/>
      <path id="Path_2268" data-name="Path 2268" d="M23.9,14.22a.6.6,0,0,1-.516-.289L22.25,12.086a.606.606,0,1,1,1.032-.635L24.415,13.3a.606.606,0,0,1-.516.924" transform="translate(4.707 2.371)" fill="#05222e"/>
      <path id="Path_2269" data-name="Path 2269" d="M18.955,16.082h-.046a.608.608,0,0,1-.56-.65l.161-2.165a.607.607,0,1,1,1.21.09l-.161,2.165a.6.6,0,0,1-.6.561" transform="translate(3.897 2.699)" fill="#05222e"/>
      <path id="Path_2270" data-name="Path 2270" d="M17.478,16.752a5.959,5.959,0,0,1-1.3-.15l-.187-.029a.609.609,0,0,1-.172-.056c.011.012-.063-.007-.145-.048a4.686,4.686,0,0,1-.578-.212,6.035,6.035,0,0,1-3.235-3.705l-.227-.932c0-.01-.028-.132-.029-.142a7.245,7.245,0,0,1,.382-4.607,1.658,1.658,0,0,1,.341-.466,3.286,3.286,0,0,1,.246-.232c.052-.056.144-.138.246-.228A20.33,20.33,0,0,1,15.7,3.954c.234-.137.461-.263.7-.388.089-.051.177-.1.276-.15A22.032,22.032,0,0,1,20.1,1.962c.064-.024.155-.051.247-.079l.171-.052a6.391,6.391,0,0,1,.655-.165,6.955,6.955,0,0,1,4.243.1,5.426,5.426,0,0,1,.553.268c.016.01.093.056.11.068a3.9,3.9,0,0,1,.383.284,8.275,8.275,0,0,1,2.2,2.6,4.144,4.144,0,0,1,.28.535c.045.116.085.209.124.3l.073.171a7.938,7.938,0,0,1,.516,2.068,5.12,5.12,0,0,1-.306,2.555l0,.011c-.041.1-.086.193-.131.284l-.069.147a5.4,5.4,0,0,1-.372.6,4.091,4.091,0,0,1-.363.445,14.338,14.338,0,0,1-2.62,2.016,3.211,3.211,0,0,1-.466.278,4.5,4.5,0,0,1-.449.261,19.01,19.01,0,0,1-3.64,1.513l-.469.144c-.165.035-.259.057-.352.078l-.267.058a11.647,11.647,0,0,1-2.667.318m-1.229-1.366.156.027a4.714,4.714,0,0,0,1.206.125,10.156,10.156,0,0,0,2.279-.287l.25-.055c.109-.025.219-.051.333-.072l.407-.13a17.835,17.835,0,0,0,3.413-1.419c.147-.079.287-.154.418-.24a3.2,3.2,0,0,0,.4-.241,13.343,13.343,0,0,0,2.4-1.833,2.849,2.849,0,0,0,.247-.3,4.334,4.334,0,0,0,.285-.446l.068-.143c.033-.068.068-.137.1-.211a3.908,3.908,0,0,0,.23-1.956,6.793,6.793,0,0,0-.436-1.763l-.064-.148c-.045-.1-.091-.213-.132-.321a3.192,3.192,0,0,0-.206-.386A7.154,7.154,0,0,0,25.7,3.323c-.095-.08-.176-.141-.247-.19a4.268,4.268,0,0,0-.492-.249,5.841,5.841,0,0,0-3.528-.033,5.478,5.478,0,0,0-.54.133l-.2.061c-.068.021-.137.041-.2.064A20.917,20.917,0,0,0,17.229,4.5c-.089.045-.156.084-.226.124-.264.138-.473.256-.695.386a19.178,19.178,0,0,0-2.658,1.819c-.112.1-.188.167-.263.244-.1.084-.155.143-.2.192a.575.575,0,0,0-.124.167,6.187,6.187,0,0,0-.272,3.807c.01.035.022.1.034.162l.2.829a4.8,4.8,0,0,0,2.553,2.921c.161.065.348.143.535.2.047.015.091.027.135.041m12.533-5h0Z" transform="translate(2.424 0.295)" fill="#05222e"/>
      <path id="Path_2271" data-name="Path 2271" d="M14.713,15.618a.594.594,0,0,1-.239-.05.606.606,0,0,1-.318-.8l.658-1.53a.606.606,0,1,1,1.113.479l-.658,1.531a.606.606,0,0,1-.557.366" transform="translate(2.997 2.735)" fill="#05222e"/>
      <path id="Path_2272" data-name="Path 2272" d="M10.549,11.411a.606.606,0,0,1-.234-1.165L12.337,9.4a.606.606,0,0,1,.468,1.119l-2.022.846a.594.594,0,0,1-.234.047" transform="translate(2.112 1.987)" fill="#05222e"/>
      <path id="Path_2273" data-name="Path 2273" d="M13.094,6.514a.564.564,0,0,1-.172-.025l-1.683-.5a.606.606,0,1,1,.343-1.163l1.684.5a.606.606,0,0,1-.172,1.187" transform="translate(2.295 1.02)" fill="#05222e"/>
      <path id="Path_2274" data-name="Path 2274" d="M16.139,4.608a.606.606,0,0,1-.422-.17L14.149,2.924a.607.607,0,0,1,.844-.872l1.568,1.513a.606.606,0,0,1,.013.857.6.6,0,0,1-.435.186" transform="translate(2.966 0.4)" fill="#05222e"/>
      <path id="Path_2275" data-name="Path 2275" d="M19.223,3.3a.606.606,0,0,1-.6-.54L18.4.723A.606.606,0,1,1,19.6.591l.226,2.037a.606.606,0,0,1-.536.669.637.637,0,0,1-.068,0" transform="translate(3.907 0.011)" fill="#05222e"/>
      <path id="Path_2276" data-name="Path 2276" d="M18.8,28.644a1.084,1.084,0,0,1-.486-.114l-2.686-1.223-.959.984a.608.608,0,0,1-.673.135l-1.024-.439a.606.606,0,1,1,.479-1.114l.64.275.966-.993a.6.6,0,0,1,.685-.129l3.047,1.388,1.626-.924a.628.628,0,0,1,.837.19.582.582,0,0,1-.15.806l-.046.032-1.707.974a1.05,1.05,0,0,1-.548.152m-.062-1.2-.008,0Zm.092-.011h0Z" transform="translate(2.678 5.517)" fill="#05222e"/>
      <path id="Path_2277" data-name="Path 2277" d="M15.854,26.041a1.1,1.1,0,0,1-.489-.114L12.683,24.7l-.959.984a.606.606,0,1,1-.868-.845l1.255-1.291a.607.607,0,0,1,.686-.129l3.046,1.388,1.627-.924a.629.629,0,0,1,.837.19.583.583,0,0,1-.15.806l-.046.032L16.4,25.89a1.055,1.055,0,0,1-.549.152m-.061-1.2-.008,0Zm.092-.011h0Z" transform="translate(2.269 4.964)" fill="#05222e"/>
      <path id="Path_2278" data-name="Path 2278" d="M8.777,24.757a.632.632,0,0,1-.133-.015.606.606,0,0,1-.457-.726l.588-2.59a.6.6,0,0,1,.28-.386c.04-.023.153-.092,1.627-.7l-.621-1.957a.606.606,0,1,1,1.155-.367l.789,2.489a.605.605,0,0,1-.347.743c-.668.275-1.4.58-1.769.741l-.523,2.3a.6.6,0,0,1-.59.472" transform="translate(1.736 3.737)" fill="#05222e"/>
      <path id="Path_2279" data-name="Path 2279" d="M7.41,23.1a.605.605,0,0,1-.6-.513l-.3-1.919c-.359-.182-.989-.486-.989-.486a.6.6,0,0,1-.336-.63l.262-1.844a.606.606,0,1,1,1.2.171l-.2,1.406c.43.21.845.418.948.486a.611.611,0,0,1,.267.413L8.01,22.4a.608.608,0,0,1-.6.7" transform="translate(1.101 3.651)" fill="#05222e"/>
      <path id="Path_2280" data-name="Path 2280" d="M10.829,38.6l-.567-.235-.507-.333.032-.047.863-1.645L9.139,33.378a.609.609,0,0,1,.107-.69l.96-1-.295-.633a.606.606,0,1,1,1.1-.513l.472,1.01a.606.606,0,0,1-.113.677l-.953.991,1.32,2.66a1.088,1.088,0,0,1-.024,1.038Z" transform="translate(1.928 6.414)" fill="#05222e"/>
      <path id="Path_2281" data-name="Path 2281" d="M8.137,35.737,7.572,35.5l-.513-.324.029-.047.847-1.613-1.488-3a.6.6,0,0,1,.107-.69L7.8,28.53a.607.607,0,0,1,.874.841l-.953.991,1.319,2.66A1.085,1.085,0,0,1,9.02,34.06Zm-.173-2.165,0,.01Zm-.006-.1,0,0Z" transform="translate(1.356 6.021)" fill="#05222e"/>
      <path id="Path_2282" data-name="Path 2282" d="M3.666,29.871a.6.6,0,0,1-.165-.023L.989,29.14a.606.606,0,0,1,.329-1.168l1.976.558c.563-1.492.627-1.609.65-1.65a.608.608,0,0,1,.376-.292l2.568-.672a.607.607,0,1,1,.308,1.174l-2.281.6c-.143.365-.426,1.109-.68,1.791a.607.607,0,0,1-.569.394" transform="translate(0.116 5.501)" fill="#05222e"/>
      <path id="Path_2283" data-name="Path 2283" d="M5.349,25.774c-.025,0-.05,0-.075,0L3.049,25.5a.6.6,0,0,1-.423-.255c-.072-.1-.291-.507-.516-.93l-1.4.246A.606.606,0,0,1,.5,23.366l1.834-.323a.606.606,0,0,1,.641.315s.324.617.519.974l1.927.233a.607.607,0,0,1-.073,1.209" transform="translate(0 4.893)" fill="#05222e"/>
      <path id="Path_2284" data-name="Path 2284" d="M23.573,26.426a.624.624,0,0,1-.107-.01,4.1,4.1,0,0,1-2.079-.639l-1.4-.9a4.072,4.072,0,0,1-1.214-5.624l.892-1.4a4.085,4.085,0,0,1,5.626-1.222.542.542,0,0,1,.073.055l1.329.847a4.055,4.055,0,0,1,1.249,5.56.632.632,0,0,1-.034.063l-.895,1.4a4.081,4.081,0,0,1-3.436,1.865m-.48-9.223a2.865,2.865,0,0,0-2.41,1.307l-.894,1.4a2.859,2.859,0,0,0,.849,3.95l1.4.894a2.878,2.878,0,0,0,1.543.452.534.534,0,0,1,.089.006,2.787,2.787,0,0,0,.516-.063,2.82,2.82,0,0,0,1.8-1.242l.862-1.351a.5.5,0,0,1,.034-.062,2.845,2.845,0,0,0-.85-3.939l-1.4-.894a.708.708,0,0,1-.068-.051,2.85,2.85,0,0,0-1.473-.409m4.3,5.629h0Z" transform="translate(3.849 3.397)" fill="#05222e"/>
      <path id="Path_2285" data-name="Path 2285" d="M38.625,16.038a7.556,7.556,0,0,1-3.974-1.172l-.784-.515A7.384,7.384,0,0,1,31.652,4.168l.51-.789A7.357,7.357,0,0,1,42.349,1.187l.781.492a7.381,7.381,0,0,1,2.213,10.186l-.495.787A7.335,7.335,0,0,1,40.2,15.868a6.419,6.419,0,0,1-1.577.17M38.365,1.212a6.184,6.184,0,0,0-1.294.138,6.119,6.119,0,0,0-3.891,2.686l-.509.788a6.17,6.17,0,0,0,1.855,8.51l.781.512a6.324,6.324,0,0,0,3.323.98,5.3,5.3,0,0,0,1.3-.139A6.133,6.133,0,0,0,43.825,12l.493-.784,0-.006A6.164,6.164,0,0,0,42.479,2.7L41.7,2.208a6.081,6.081,0,0,0-3.331-1" transform="translate(6.476 0)" fill="#05222e"/>
      <path id="Path_2286" data-name="Path 2286" d="M40.694,50.415a2.934,2.934,0,0,1-2.009-5.074A2.933,2.933,0,0,1,42.7,49.616a.726.726,0,0,1-.067.055,2.875,2.875,0,0,1-1.941.744m-.006-4.653a1.72,1.72,0,0,0-1.718,1.718,1.731,1.731,0,0,0,.47,1.18,1.7,1.7,0,0,0,2.416.079.585.585,0,0,1,.061-.051,1.722,1.722,0,0,0-1.229-2.926m1.6,3.413h0Z" transform="translate(8.021 9.463)" fill="#05222e"/>
      <path id="Path_2287" data-name="Path 2287" d="M47.833,27.717h0a.529.529,0,0,1-.365.145h-.016a.53.53,0,0,1-.373-.17.534.534,0,1,1,.755.024" transform="translate(9.97 5.692)" fill="#05222e"/>
      <path id="Path_2288" data-name="Path 2288" d="M35.02,30.429h0a.822.822,0,0,1-.567.227h-.025a.827.827,0,0,1-.581-.263.842.842,0,0,1-.226-.57.831.831,0,1,1,1.4.606" transform="translate(7.141 6.159)" fill="#05222e"/>
      <path id="Path_2289" data-name="Path 2289" d="M26.828,44.225a4.958,4.958,0,0,1-.727,2.461V46.7a5.35,5.35,0,0,1-.436.594,4.308,4.308,0,0,1-.582.57,5.041,5.041,0,0,1-.934.63,4.729,4.729,0,0,1-.57.242,4.64,4.64,0,0,1-.7.194,6.49,6.49,0,0,1-.849.1H21.82a5.294,5.294,0,0,1-1.71-.339,4.93,4.93,0,0,1-.667-.339,4.852,4.852,0,0,1-2.207-2.8,3.589,3.589,0,0,1-.158-.715,4.5,4.5,0,0,1-.061-.812,4.941,4.941,0,0,1,.655-2.34,4.883,4.883,0,0,1,2.679-2.194,3.528,3.528,0,0,1,.7-.182,5.427,5.427,0,0,1,.776-.085h.194a4.925,4.925,0,0,1,.946.121,4.578,4.578,0,0,1,1.491.594,4.783,4.783,0,0,1,2.267,3.225,4.6,4.6,0,0,1,.085.727,3.177,3.177,0,0,1,.012.339" transform="translate(3.615 8.331)" fill="#f6a87a"/>
      <path id="Path_2290" data-name="Path 2290" d="M21.925,49.739a5.843,5.843,0,0,1-1.917-.376,5.728,5.728,0,0,1-.776-.392,5.429,5.429,0,0,1-2.471-3.146A4.08,4.08,0,0,1,16.582,45a4.895,4.895,0,0,1-.064-.874,5.6,5.6,0,0,1,.737-2.644,5.754,5.754,0,0,1,.464-.684,5.491,5.491,0,0,1,2.547-1.781,4.009,4.009,0,0,1,.8-.206,5.607,5.607,0,0,1,.839-.091h.222a5.513,5.513,0,0,1,1.083.137,5.193,5.193,0,0,1,1.674.669,5.4,5.4,0,0,1,2.54,3.618,5,5,0,0,1,.1.822,3.325,3.325,0,0,1,.013.367v.016a5.59,5.59,0,0,1-.778,2.7.423.423,0,0,1-.047.09,5.967,5.967,0,0,1-.486.66,4.818,4.818,0,0,1-.668.652,5.468,5.468,0,0,1-1.021.686,5.105,5.105,0,0,1-.641.275,5.179,5.179,0,0,1-.8.222,7.1,7.1,0,0,1-.941.107Zm.184-9.809h-.172a4.828,4.828,0,0,0-.662.074,2.993,2.993,0,0,0-.607.156,4.276,4.276,0,0,0-2,1.4,4.146,4.146,0,0,0-.364.537,4.348,4.348,0,0,0-.571,2.049,3.772,3.772,0,0,0,.051.685,3.2,3.2,0,0,0,.139.641,4.228,4.228,0,0,0,1.935,2.46,4.543,4.543,0,0,0,.6.306,4.629,4.629,0,0,0,1.486.291h.194a5.623,5.623,0,0,0,.744-.089,3.911,3.911,0,0,0,.6-.165,3.965,3.965,0,0,0,.492-.209,4.389,4.389,0,0,0,.822-.553A3.844,3.844,0,0,0,25.314,47a4.676,4.676,0,0,0,.343-.463.445.445,0,0,1,.032-.058,4.382,4.382,0,0,0,.638-2.154,2.419,2.419,0,0,0-.008-.266,4.261,4.261,0,0,0-.075-.668,4.378,4.378,0,0,0-1.457-2.461,4.262,4.262,0,0,0-.524-.366,3.993,3.993,0,0,0-1.3-.523,4.4,4.4,0,0,0-.847-.109m4.823,4.4h0Z" transform="translate(3.509 8.225)" fill="#05222e"/>
      <path id="Path_2291" data-name="Path 2291" d="M16.94,48.116a.607.607,0,0,1-.429-1.035l1.334-1.332a.606.606,0,1,1,.857.857l-1.332,1.334a.609.609,0,0,1-.429.177" transform="translate(3.47 9.68)" fill="#05222e"/>
      <path id="Path_2292" data-name="Path 2292" d="M15.96,51.734a2.764,2.764,0,0,1-1.954-4.72,2.83,2.83,0,0,1,3.91,0,2.764,2.764,0,0,1-1.956,4.72m0-4.317a1.541,1.541,0,0,0-1.1.455,1.553,1.553,0,1,0,1.1-.455" transform="translate(2.803 9.821)" fill="#05222e"/>
      <path id="Path_2293" data-name="Path 2293" d="M17.3,43.747H15.415a.606.606,0,1,1,0-1.212H17.3a.606.606,0,1,1,0,1.212" transform="translate(3.146 9.036)" fill="#05222e"/>
      <path id="Path_2294" data-name="Path 2294" d="M13.9,46.259a2.766,2.766,0,1,1,2.766-2.766A2.768,2.768,0,0,1,13.9,46.259m0-4.319a1.553,1.553,0,1,0,1.553,1.553A1.555,1.555,0,0,0,13.9,41.94" transform="translate(2.366 8.652)" fill="#05222e"/>
      <path id="Path_2295" data-name="Path 2295" d="M18.6,41.08a.609.609,0,0,1-.429-.177l-1.332-1.334a.606.606,0,1,1,.857-.857l1.334,1.332A.606.606,0,0,1,18.6,41.08" transform="translate(3.538 8.186)" fill="#05222e"/>
      <path id="Path_2296" data-name="Path 2296" d="M16.32,40.922a2.764,2.764,0,0,1-1.954-4.72,2.831,2.831,0,0,1,3.91,0,2.764,2.764,0,0,1-1.956,4.72m0-4.317a1.541,1.541,0,0,0-1.1.455,1.553,1.553,0,1,0,1.1-.455" transform="translate(2.88 7.524)" fill="#05222e"/>
      <path id="Path_2297" data-name="Path 2297" d="M21.4,40.108a.606.606,0,0,1-.606-.606V37.616a.606.606,0,0,1,1.212,0V39.5a.606.606,0,0,1-.606.606" transform="translate(4.417 7.862)" fill="#05222e"/>
      <path id="Path_2298" data-name="Path 2298" d="M21.8,38.867A2.766,2.766,0,1,1,24.567,36.1,2.768,2.768,0,0,1,21.8,38.867m0-4.319A1.553,1.553,0,1,0,23.355,36.1,1.555,1.555,0,0,0,21.8,34.548" transform="translate(4.044 7.082)" fill="#05222e"/>
      <path id="Path_2299" data-name="Path 2299" d="M24.3,41.4a.607.607,0,0,1-.429-1.035L25.2,39.035a.606.606,0,1,1,.857.857l-1.332,1.334a.609.609,0,0,1-.429.177" transform="translate(5.033 8.254)" fill="#05222e"/>
      <path id="Path_2300" data-name="Path 2300" d="M27.134,41.288a2.767,2.767,0,1,1,1.954-.811,2.745,2.745,0,0,1-1.954.811m0-4.319a1.553,1.553,0,0,0-1.1,2.65,1.587,1.587,0,0,0,2.2,0,1.553,1.553,0,0,0-1.1-2.65" transform="translate(5.177 7.596)" fill="#05222e"/>
      <path id="Path_2301" data-name="Path 2301" d="M27.252,44.2H25.366a.606.606,0,1,1,0-1.212h1.885a.606.606,0,1,1,0,1.212" transform="translate(5.26 9.132)" fill="#05222e"/>
      <path id="Path_2302" data-name="Path 2302" d="M29.192,46.768A2.766,2.766,0,1,1,31.958,44a2.767,2.767,0,0,1-2.766,2.766m0-4.319A1.553,1.553,0,1,0,30.745,44a1.554,1.554,0,0,0-1.553-1.553" transform="translate(5.614 8.76)" fill="#05222e"/>
      <path id="Path_2303" data-name="Path 2303" d="M25.311,48.439a.609.609,0,0,1-.429-.177l-1.332-1.334a.606.606,0,0,1,.857-.857L25.74,47.4a.606.606,0,0,1-.429,1.035" transform="translate(4.965 9.749)" fill="#05222e"/>
      <path id="Path_2304" data-name="Path 2304" d="M26.775,52.1a2.767,2.767,0,1,1,1.954-.811,2.745,2.745,0,0,1-1.954.811m0-4.319a1.553,1.553,0,0,0-1.1,2.65,1.588,1.588,0,0,0,2.2,0,1.553,1.553,0,0,0-1.1-2.65" transform="translate(5.1 9.893)" fill="#05222e"/>
      <path id="Path_2305" data-name="Path 2305" d="M20.941,50.06a.606.606,0,0,1-.606-.606V47.568a.606.606,0,0,1,1.212,0v1.885a.606.606,0,0,1-.606.606" transform="translate(4.32 9.976)" fill="#05222e"/>
      <path id="Path_2306" data-name="Path 2306" d="M21.292,54.16a2.766,2.766,0,1,1,2.766-2.766,2.767,2.767,0,0,1-2.766,2.766m0-4.319a1.553,1.553,0,1,0,1.553,1.553,1.554,1.554,0,0,0-1.553-1.553" transform="translate(3.936 10.33)" fill="#05222e"/>
      <path id="Path_2307" data-name="Path 2307" d="M18.29,7.222a1.034,1.034,0,1,1-1.038-1.031A1.035,1.035,0,0,1,18.29,7.222" transform="translate(3.446 1.315)" fill="#05222e"/>
      <path id="Path_2308" data-name="Path 2308" d="M20.689,5.282c0,.657-.356,1.188-.793,1.188S19.1,5.939,19.1,5.282s.356-1.188.792-1.188.793.531.793,1.188" transform="translate(4.058 0.87)" fill="#05222e"/>
      <path id="Path_2309" data-name="Path 2309" d="M24.1,6.847c0,.435-.531.793-1.188.793s-1.189-.358-1.189-.793.531-.793,1.189-.793S24.1,6.4,24.1,6.847" transform="translate(4.613 1.286)" fill="#05222e"/>
      <path id="Path_2310" data-name="Path 2310" d="M22,9.2c0,.657-.356,1.188-.793,1.188s-.792-.531-.792-1.188.356-1.188.792-1.188S22,8.546,22,9.2" transform="translate(4.336 1.703)" fill="#05222e"/>
      <path id="Path_2311" data-name="Path 2311" d="M19.521,10.115c0,.435-.531.793-1.188.793s-1.189-.358-1.189-.793.531-.793,1.189-.793,1.188.349,1.188.793" transform="translate(3.642 1.98)" fill="#05222e"/>
      <path id="Path_2312" data-name="Path 2312" d="M16.253,9.2a1.189,1.189,0,1,1-1.188-1.188A1.187,1.187,0,0,1,16.253,9.2" transform="translate(2.947 1.703)" fill="#05222e"/>
      <path id="Path_2313" data-name="Path 2313" d="M39.47,8.6a.7.7,0,1,1-.7-.7.7.7,0,0,1,.7.7" transform="translate(8.087 1.676)" fill="#05222e"/>
      <path id="Path_2314" data-name="Path 2314" d="M36.333,8.836a2.98,2.98,0,1,1,2.11-.877,2.978,2.978,0,0,1-2.11.877m0-4.745A1.766,1.766,0,1,0,38.1,5.857,1.763,1.763,0,0,0,36.333,4.09" transform="translate(7.087 0.611)" fill="#05222e"/>
      <path id="Path_2315" data-name="Path 2315" d="M37.391,36.7a1.845,1.845,0,1,1,1.844,1.851A1.843,1.843,0,0,1,37.391,36.7M40.7,32.652a5.276,5.276,0,1,1,5.285-5.276A5.277,5.277,0,0,1,40.7,32.652m7.362-7.85a1.85,1.85,0,1,1,1.3-.542,1.843,1.843,0,0,1-1.3.542m.49,13.858a3.444,3.444,0,1,1,2.431-1.009,3.431,3.431,0,0,1-2.431,1.009" transform="translate(7.526 4.485)" fill="#f6a87a"/>
      <path id="Path_2316" data-name="Path 2316" d="M48.661,39.372a4.048,4.048,0,1,1,2.86-1.186,4.044,4.044,0,0,1-2.86,1.186m0-6.865a2.822,2.822,0,1,0,2.833,2.821,2.829,2.829,0,0,0-2.833-2.821m-9.314,6.752A2.455,2.455,0,1,1,41.792,36.8a2.46,2.46,0,0,1-2.444,2.458m0-3.7A1.242,1.242,0,1,0,40.579,36.8a1.24,1.24,0,0,0-1.237-1.239m1.467-2.2A5.884,5.884,0,1,1,46.7,27.482a5.89,5.89,0,0,1-5.891,5.884m0-10.555a4.671,4.671,0,1,0,4.679,4.67,4.677,4.677,0,0,0-4.679-4.67m7.362,2.7a2.455,2.455,0,1,1,1.731-.719,2.428,2.428,0,0,1-1.731.719m0-3.688a1.238,1.238,0,0,0,0,2.476,1.221,1.221,0,0,0,.869-.358,1.237,1.237,0,0,0-.869-2.118" transform="translate(7.419 4.379)" fill="#05222e"/>
      <path id="Path_2317" data-name="Path 2317" d="M14.55,32.439a2.1,2.1,0,0,1-1.506.69h-.016a2.38,2.38,0,0,1-1.419-.555,1.723,1.723,0,0,1-.213-.206L9.138,30.11l-.769-.777-4.2-4.2a2.359,2.359,0,0,1-.2-.222,2.371,2.371,0,0,1-.419-3.089,2.566,2.566,0,0,1,3.281-.611,1.347,1.347,0,0,1,.173.1,8.608,8.608,0,0,1,.928.61c.451.325.951.729,1.474,1.172.292.246.594.5.895.769.571.507,1.165,1.046,1.735,1.585.286.262.563.524.84.784.538.515,1.038,1.006,1.482,1.434l.872.872c.872.872.349,2.876-.681,3.906" transform="translate(0.671 4.433)" fill="#f6a87a"/>
      <path id="Path_2318" data-name="Path 2318" d="M13.168,33.84a3.021,3.021,0,0,1-1.84-.7,2.255,2.255,0,0,1-.28-.27l-7.2-7.205A2.872,2.872,0,0,1,3.6,25.39a2.938,2.938,0,0,1-.432-3.823,3.2,3.2,0,0,1,4.074-.776,1.28,1.28,0,0,1,.194.108,9,9,0,0,1,.965.635c.456.327.968.742,1.5,1.2.3.247.6.506.908.78.573.509,1.172,1.052,1.746,1.6.262.239.521.484.782.729l2.425,2.374c1.146,1.147.581,3.492-.672,4.754a2.694,2.694,0,0,1-1.928.877m-7.5-12.259a1.966,1.966,0,0,0-1.531.726c-.161.222-.664,1.111.4,2.307a2.113,2.113,0,0,0,.171.192l7.23,7.238a1.645,1.645,0,0,0,.164.161,1.782,1.782,0,0,0,1.067.422,1.481,1.481,0,0,0,1.045-.49l.019-.022c.872-.872,1.235-2.5.683-3.049l-2.345-2.3c-.31-.293-.566-.535-.829-.776-.573-.541-1.163-1.075-1.729-1.579-.3-.266-.593-.515-.883-.757-.512-.434-1-.829-1.438-1.145a7.929,7.929,0,0,0-.868-.573c-.023-.01-.162-.087-.183-.1a1.93,1.93,0,0,0-.972-.259" transform="translate(0.564 4.327)" fill="#05222e"/>
    </g>
  </g>
</svg>
